<svg id="w_cloudy" xmlns="http://www.w3.org/2000/svg" width="43.76" height="33.928" viewBox="0 0 43.76 33.928">
  <g id="그룹_515" data-name="그룹 515" transform="translate(13.7)">
    <g id="그룹_514" data-name="그룹 514">
      <g id="그룹_513" data-name="그룹 513">
        <circle id="타원_53" data-name="타원 53" cx="7.956" cy="7.956" r="7.956" transform="matrix(0.23, -0.973, 0.973, 0.23, 5.458, 20.945)" fill="#ffc033"/>
        <path id="패스_1211" data-name="패스 1211" d="M401.643,129.355a1.336,1.336,0,1,1-2.661,0,8.823,8.823,0,0,1,1.012-2.741.357.357,0,0,1,.637,0A8.82,8.82,0,0,1,401.643,129.355Z" transform="translate(-385.084 -126.419)" fill="#ffc033"/>
        <path id="패스_1212" data-name="패스 1212" d="M370.033,141.75a1.335,1.335,0,1,1-1.881,1.881,8.82,8.82,0,0,1-1.223-2.654.357.357,0,0,1,.45-.45A8.81,8.81,0,0,1,370.033,141.75Z" transform="translate(-362.474 -136.353)" fill="#ffc033"/>
        <path id="패스_1213" data-name="패스 1213" d="M354.805,172.185a1.336,1.336,0,1,1,0,2.661,8.818,8.818,0,0,1-2.741-1.012.357.357,0,0,1,0-.637A8.819,8.819,0,0,1,354.805,172.185Z" transform="translate(-351.869 -158.684)" fill="#ffc033"/>
        <path id="패스_1214" data-name="패스 1214" d="M367.2,201.522a1.335,1.335,0,1,1,1.881,1.881,8.811,8.811,0,0,1-2.654,1.223.357.357,0,0,1-.45-.45A8.828,8.828,0,0,1,367.2,201.522Z" transform="translate(-361.802 -179.023)" fill="#ffc033"/>
        <path id="패스_1215" data-name="패스 1215" d="M397.635,214.888a1.336,1.336,0,1,1,2.66,0,8.818,8.818,0,0,1-1.012,2.741.357.357,0,0,1-.637,0A8.82,8.82,0,0,1,397.635,214.888Z" transform="translate(-384.134 -187.765)" fill="#ffc033"/>
        <path id="패스_1216" data-name="패스 1216" d="M426.972,204.356a1.335,1.335,0,1,1,1.881-1.881,8.818,8.818,0,0,1,1.223,2.654.357.357,0,0,1-.45.45A8.818,8.818,0,0,1,426.972,204.356Z" transform="translate(-404.472 -179.694)" fill="#ffc033"/>
        <path id="패스_1217" data-name="패스 1217" d="M440.337,176.193a1.335,1.335,0,1,1,0-2.66,8.818,8.818,0,0,1,2.741,1.012.357.357,0,0,1,0,.637A8.819,8.819,0,0,1,440.337,176.193Z" transform="translate(-413.214 -159.635)" fill="#ffc033"/>
        <path id="패스_1218" data-name="패스 1218" d="M429.806,144.583a1.335,1.335,0,1,1-1.881-1.881,8.825,8.825,0,0,1,2.654-1.223.357.357,0,0,1,.45.45A8.818,8.818,0,0,1,429.806,144.583Z" transform="translate(-405.144 -137.024)" fill="#ffc033"/>
      </g>
    </g>
  </g>
  <g id="그룹_516" data-name="그룹 516" transform="translate(0 8.984)">
    <path id="패스_1219" data-name="패스 1219" d="M338.137,170.655a8.118,8.118,0,0,0-10.964-9.44,8.191,8.191,0,0,0-15.42,3.851,8.276,8.276,0,0,0,.085,1.17,7.86,7.86,0,0,0-6.412,7.724h0a7.859,7.859,0,0,0,7.859,7.859h23.039a5.731,5.731,0,0,0,5.73-5.731h0A5.729,5.729,0,0,0,338.137,170.655Z" transform="translate(-305.426 -156.875)" fill="#b9b9b9"/>
  </g>
</svg>
