<svg xmlns="http://www.w3.org/2000/svg" width="42.213" height="34.425" viewBox="0 0 42.213 34.425"><defs><style>.a{fill:#ffc033;}.b{fill:#b9b9b9;}</style></defs><g transform="translate(0)"><g transform="translate(9.033 0)"><circle class="a" cx="8.782" cy="8.782" r="8.782" transform="translate(6.025 23.119) rotate(-76.717)"/><path class="a" d="M-675.932,226a1.451,1.451,0,0,1-1.469,1.6,1.451,1.451,0,0,1-1.469-1.6,9.746,9.746,0,0,1,1.117-3.025.394.394,0,0,1,.7,0A9.728,9.728,0,0,1-675.932,226Z" transform="translate(694.209 -222.762)"/><path class="a" d="M-688.826,230.021a1.451,1.451,0,0,1,.1,2.173,1.452,1.452,0,0,1-2.174-.1,9.739,9.739,0,0,1-1.349-2.929.394.394,0,0,1,.5-.5A9.738,9.738,0,0,1-688.826,230.021Z" transform="translate(697.17 -224.063)"/><path class="a" d="M-695.318,241.889a1.452,1.452,0,0,1,1.606,1.469,1.452,1.452,0,0,1-1.606,1.468,9.742,9.742,0,0,1-3.025-1.116.394.394,0,0,1,0-.7A9.725,9.725,0,0,1-695.318,241.889Z" transform="translate(698.559 -226.987)"/><path class="a" d="M-691.3,254.485a1.451,1.451,0,0,1,2.173-.1,1.452,1.452,0,0,1-.1,2.174,9.734,9.734,0,0,1-2.93,1.349.394.394,0,0,1-.5-.5A9.736,9.736,0,0,1-691.3,254.485Z" transform="translate(697.258 -229.65)"/><path class="a" d="M-679.432,260.733a1.451,1.451,0,0,1,1.469-1.6,1.451,1.451,0,0,1,1.469,1.6,9.723,9.723,0,0,1-1.117,3.026.394.394,0,0,1-.7,0A9.721,9.721,0,0,1-679.432,260.733Z" transform="translate(694.334 -230.795)"/><path class="a" d="M-666.835,256.96a1.452,1.452,0,0,1-.1-2.174,1.451,1.451,0,0,1,2.173.1,9.734,9.734,0,0,1,1.349,2.929.394.394,0,0,1-.5.5A9.733,9.733,0,0,1-666.835,256.96Z" transform="translate(691.67 -229.738)"/><path class="a" d="M-660.587,245.389a1.451,1.451,0,0,1-1.606-1.468,1.452,1.452,0,0,1,1.606-1.469,9.727,9.727,0,0,1,3.025,1.117.394.394,0,0,1,0,.7A9.744,9.744,0,0,1-660.587,245.389Z" transform="translate(690.526 -227.112)"/><path class="a" d="M-664.361,232.495a1.451,1.451,0,0,1-2.173.1,1.451,1.451,0,0,1,.1-2.173,9.733,9.733,0,0,1,2.929-1.35.394.394,0,0,1,.5.5A9.713,9.713,0,0,1-664.361,232.495Z" transform="translate(691.583 -224.151)"/></g><g transform="translate(0 12.718)"><g transform="translate(0 0)"><path class="b" d="M-1361.1,764.7a7.075,7.075,0,0,0,.2-1.679,7.064,7.064,0,0,0-7.064-7.064,7.043,7.043,0,0,0-2.681.528,7.125,7.125,0,0,0-6.291-3.777,7.127,7.127,0,0,0-7.128,7.128,7.222,7.222,0,0,0,.073,1.018,6.84,6.84,0,0,0-5.58,6.722h0a6.839,6.839,0,0,0,6.839,6.839h20.05a4.987,4.987,0,0,0,4.987-4.987h0A4.986,4.986,0,0,0-1361.1,764.7Z" transform="translate(1389.565 -752.708)"/></g></g></g></svg>