<svg xmlns="http://www.w3.org/2000/svg" width="38.82" height="26.436" viewBox="0 0 38.82 26.436">
  <g id="w_cloudy" transform="translate(0 -4.508)">
    <g id="그룹_516" data-name="그룹 516" transform="translate(0 4.508)">
      <path id="패스_1219" data-name="패스 1219" d="M340.094,171.479a8.6,8.6,0,0,0-11.62-10.005,8.681,8.681,0,0,0-16.342,4.081,8.771,8.771,0,0,0,.09,1.24,8.33,8.33,0,0,0-6.8,8.186h0a8.329,8.329,0,0,0,8.329,8.329h24.417a6.073,6.073,0,0,0,6.073-6.073h0A6.072,6.072,0,0,0,340.094,171.479Z" transform="translate(-305.426 -156.875)" fill="#b9b9b9"/>
    </g>
  </g>
</svg>
