<svg id="w_foggy" xmlns="http://www.w3.org/2000/svg" width="34.788" height="27.113" viewBox="0 0 34.788 27.113">
  <path id="패스_1244" data-name="패스 1244" d="M1141.022,146.887H1116.1a1.285,1.285,0,1,1,0-2.57h24.924a1.285,1.285,0,0,1,0,2.57Z" transform="translate(-1112.478 -144.317)" fill="#d6d6d6"/>
  <path id="패스_1245" data-name="패스 1245" d="M1144.581,180.935h-21.1a1.285,1.285,0,0,1,0-2.57h21.1a1.285,1.285,0,1,1,0,2.57Z" transform="translate(-1117.752 -168.642)" fill="#d6d6d6"/>
  <g id="그룹_538" data-name="그룹 538" transform="translate(0 4.862)">
    <path id="패스_1246" data-name="패스 1246" d="M1130.747,163.911h-22.825a1.285,1.285,0,1,1,0-2.57h22.825a1.285,1.285,0,1,1,0,2.57Z" transform="translate(-1106.637 -161.341)" fill="#d6d6d6"/>
    <path id="패스_1247" data-name="패스 1247" d="M1208.152,163.911h-3.944a1.285,1.285,0,1,1,0-2.57h3.944a1.285,1.285,0,1,1,0,2.57Z" transform="translate(-1175.426 -161.341)" fill="#d6d6d6"/>
    <path id="패스_1248" data-name="패스 1248" d="M1110.77,215.8h-2.13a1.285,1.285,0,1,1,0-2.57h2.13a1.285,1.285,0,0,1,0,2.57Z" transform="translate(-1107.15 -198.413)" fill="#d6d6d6"/>
  </g>
  <path id="패스_1249" data-name="패스 1249" d="M1143.649,198.778H1116.1a1.285,1.285,0,1,1,0-2.57h27.552a1.285,1.285,0,1,1,0,2.57Z" transform="translate(-1112.478 -181.389)" fill="#d6d6d6"/>
  <path id="패스_1250" data-name="패스 1250" d="M1148.416,232.826h-19.569a1.285,1.285,0,1,1,0-2.57h19.569a1.285,1.285,0,0,1,0,2.57Z" transform="translate(-1121.586 -205.714)" fill="#d6d6d6"/>
  <g id="그룹_539" data-name="그룹 539" transform="translate(9.393 19.681)">
    <path id="패스_1251" data-name="패스 1251" d="M1163.639,215.8h-22.825a1.285,1.285,0,0,1,0-2.57h22.825a1.285,1.285,0,1,1,0,2.57Z" transform="translate(-1139.529 -213.232)" fill="#d6d6d6"/>
  </g>
</svg>
