<svg xmlns="http://www.w3.org/2000/svg" width="31.843" height="34.532" viewBox="0 0 31.843 34.532">
  <g id="w_lightning" transform="translate(0)">
    <g id="그룹_524" data-name="그룹 524" transform="translate(0)">
      <g id="그룹_523" data-name="그룹 523" transform="translate(0 0)">
        <path id="패스_1233" data-name="패스 1233" d="M932.439,137.317a7.058,7.058,0,0,0-9.532-8.207,7.121,7.121,0,0,0-13.4,3.348,7.2,7.2,0,0,0,.074,1.018A6.833,6.833,0,0,0,904,140.189h0a6.832,6.832,0,0,0,6.832,6.832h20.029a4.982,4.982,0,0,0,4.982-4.982h0A4.981,4.981,0,0,0,932.439,137.317Z" transform="translate(-904.001 -125.337)" fill="#b9b9b9"/>
      </g>
    </g>
    <path id="패스_1243" data-name="패스 1243" d="M957.229,200.1l-3.911-.054,2.2-8.261-8.567,9.533,3.911.054-2.2,8.261Z" transform="translate(-936.17 -175.103)" fill="#ffe02c"/>
  </g>
</svg>
