<svg xmlns="http://www.w3.org/2000/svg" width="31.843" height="34.978" viewBox="0 0 31.843 34.978">
  <g id="w_rainy" transform="translate(0)">
    <g id="그룹_521" data-name="그룹 521" transform="translate(0 0)">
      <path id="패스_1228" data-name="패스 1228" d="M558.56,137.317a7.058,7.058,0,0,0-9.532-8.207,7.121,7.121,0,0,0-13.4,3.348,7.2,7.2,0,0,0,.074,1.018,6.833,6.833,0,0,0-5.575,6.715h0a6.832,6.832,0,0,0,6.832,6.832h20.029a4.982,4.982,0,0,0,4.982-4.982h0A4.981,4.981,0,0,0,558.56,137.317Z" transform="translate(-530.122 -125.337)" fill="#b9b9b9"/>
    </g>
    <path id="패스_1229" data-name="패스 1229" d="M547.23,225.224a.879.879,0,0,1-.753-1.33l2.14-3.576a.879.879,0,0,1,1.508.9l-2.14,3.575A.878.878,0,0,1,547.23,225.224Z" transform="translate(-542.277 -196.151)" fill="#9dc0d1"/>
    <path id="패스_1230" data-name="패스 1230" d="M564.6,228.377a.879.879,0,0,1-.768-1.3l3.719-6.728a.879.879,0,1,1,1.538.85l-3.719,6.728A.878.878,0,0,1,564.6,228.377Z" transform="translate(-555.287 -196.151)" fill="#9dc0d1"/>
    <path id="패스_1231" data-name="패스 1231" d="M582.773,231.128a.879.879,0,0,1-.773-1.3l5.1-9.48a.879.879,0,1,1,1.548.832l-5.1,9.48A.879.879,0,0,1,582.773,231.128Z" transform="translate(-568.896 -196.15)" fill="#9dc0d1"/>
    <path id="패스_1232" data-name="패스 1232" d="M611.926,228.377a.879.879,0,0,1-.769-1.3l3.72-6.728a.879.879,0,1,1,1.538.85l-3.72,6.728A.878.878,0,0,1,611.926,228.377Z" transform="translate(-590.73 -196.152)" fill="#9dc0d1"/>
  </g>
</svg>
