<svg id="w_snow" xmlns="http://www.w3.org/2000/svg" width="29.728" height="33.386" viewBox="0 0 29.728 33.386">
  <g id="그룹_526" data-name="그룹 526" transform="translate(9.56 2.169)">
    <g id="그룹_525" data-name="그룹 525">
      <path id="패스_1234" data-name="패스 1234" d="M776.135,152.509,771.1,147.1a1,1,0,1,1,1.463-1.362l3.573,3.838,3.573-3.838a1,1,0,1,1,1.463,1.362Z" transform="translate(-770.831 -145.419)" fill="#9ccaef"/>
    </g>
  </g>
  <g id="그룹_528" data-name="그룹 528" transform="translate(0 5.204)">
    <g id="그룹_527" data-name="그룹 527">
      <path id="패스_1235" data-name="패스 1235" d="M738.353,165.5a1,1,0,0,1-.223-1.974l5.11-1.175-1.537-5.012a1,1,0,0,1,1.911-.586l2.167,7.066-7.2,1.657A1.014,1.014,0,0,1,738.353,165.5Z" transform="translate(-737.354 -156.043)" fill="#9ccaef"/>
    </g>
  </g>
  <g id="그룹_530" data-name="그룹 530" transform="translate(0 18.728)">
    <g id="그룹_529" data-name="그룹 529">
      <path id="패스_1236" data-name="패스 1236" d="M742.658,212.856a1,1,0,0,1-.956-1.293l1.537-5.013-5.11-1.175a1,1,0,0,1,.448-1.948l7.2,1.656-2.167,7.066A1,1,0,0,1,742.658,212.856Z" transform="translate(-737.354 -203.401)" fill="#9ccaef"/>
    </g>
  </g>
  <g id="그룹_532" data-name="그룹 532" transform="translate(9.56 0)">
    <path id="패스_1237" data-name="패스 1237" d="M786.9,171.208a1,1,0,0,1-1-1V138.822a1,1,0,0,1,2,0v31.387A1,1,0,0,1,786.9,171.208Z" transform="translate(-781.599 -137.822)" fill="#9ccaef"/>
    <g id="그룹_531" data-name="그룹 531" transform="translate(0 24.127)">
      <path id="패스_1238" data-name="패스 1238" d="M780.439,229.4a1,1,0,0,1-.732-.318l-3.573-3.838-3.573,3.838a1,1,0,1,1-1.463-1.362l5.036-5.409,5.036,5.409a1,1,0,0,1-.731,1.681Z" transform="translate(-770.831 -222.306)" fill="#9ccaef"/>
    </g>
  </g>
  <g id="그룹_534" data-name="그룹 534" transform="translate(0.273 7.846)">
    <path id="패스_1239" data-name="패스 1239" d="M766.492,182.991a1,1,0,0,1-.5-.134l-27.183-15.694a1,1,0,0,1,1-1.731l27.183,15.694a1,1,0,0,1-.5,1.865Z" transform="translate(-738.311 -165.298)" fill="#9ccaef"/>
    <g id="그룹_533" data-name="그룹 533" transform="translate(21.029 10.881)">
      <path id="패스_1240" data-name="패스 1240" d="M815.068,212.855a1,1,0,0,1-.955-.706l-2.167-7.066,7.2-1.656a1,1,0,0,1,.448,1.948l-5.11,1.175,1.537,5.013a1,1,0,0,1-.956,1.293Z" transform="translate(-811.946 -203.401)" fill="#9ccaef"/>
    </g>
  </g>
  <g id="그룹_536" data-name="그룹 536" transform="translate(0.273 5.204)">
    <path id="패스_1241" data-name="패스 1241" d="M739.311,182.99a1,1,0,0,1-.5-1.865l27.183-15.694a1,1,0,1,1,1,1.731L739.81,182.857A1,1,0,0,1,739.311,182.99Z" transform="translate(-738.311 -162.655)" fill="#9ccaef"/>
    <g id="그룹_535" data-name="그룹 535" transform="translate(21.029)">
      <path id="패스_1242" data-name="패스 1242" d="M819.373,165.5a1.013,1.013,0,0,1-.225-.026l-7.2-1.657,2.167-7.066a1,1,0,1,1,1.911.586l-1.537,5.012,5.11,1.175a1,1,0,0,1-.223,1.974Z" transform="translate(-811.946 -156.044)" fill="#9ccaef"/>
    </g>
  </g>
</svg>
