<svg xmlns="http://www.w3.org/2000/svg" width="39.413" height="39.413" viewBox="0 0 39.413 39.413"><defs><style>.a{fill:#ffc033;}</style></defs><circle class="a" cx="10.432" cy="10.432" r="10.432" transform="translate(7.157 27.462) rotate(-76.717)"/><path class="a" d="M-675.38,226.612a1.724,1.724,0,0,1-1.745,1.906,1.724,1.724,0,0,1-1.745-1.906,11.577,11.577,0,0,1,1.327-3.594.468.468,0,0,1,.835,0A11.558,11.558,0,0,1-675.38,226.612Z" transform="translate(697.091 -222.762)"/><path class="a" d="M-688.179,230.278a1.723,1.723,0,0,1,.116,2.581,1.724,1.724,0,0,1-2.582-.115,11.57,11.57,0,0,1-1.6-3.48.468.468,0,0,1,.59-.59A11.568,11.568,0,0,1-688.179,230.278Z" transform="translate(698.09 -223.201)"/><path class="a" d="M-694.709,241.889a1.724,1.724,0,0,1,1.907,1.745,1.724,1.724,0,0,1-1.907,1.744,11.573,11.573,0,0,1-3.594-1.326.468.468,0,0,1,0-.835A11.553,11.553,0,0,1-694.709,241.889Z" transform="translate(698.559 -224.187)"/><path class="a" d="M-691.043,254.586a1.723,1.723,0,0,1,2.581-.115,1.724,1.724,0,0,1-.115,2.582,11.561,11.561,0,0,1-3.48,1.6.468.468,0,0,1-.59-.59A11.569,11.569,0,0,1-691.043,254.586Z" transform="translate(698.12 -225.086)"/><path class="a" d="M-679.432,261.035a1.724,1.724,0,0,1,1.745-1.907,1.724,1.724,0,0,1,1.745,1.907,11.55,11.55,0,0,1-1.327,3.595.468.468,0,0,1-.835,0A11.55,11.55,0,0,1-679.432,261.035Z" transform="translate(697.133 -225.472)"/><path class="a" d="M-666.734,257.452a1.724,1.724,0,0,1-.115-2.582,1.723,1.723,0,0,1,2.581.116,11.565,11.565,0,0,1,1.6,3.479.468.468,0,0,1-.59.59A11.564,11.564,0,0,1-666.734,257.452Z" transform="translate(696.235 -225.116)"/><path class="a" d="M-660.286,245.94a1.724,1.724,0,0,1-1.907-1.744,1.724,1.724,0,0,1,1.907-1.745,11.554,11.554,0,0,1,3.594,1.327.468.468,0,0,1,0,.835A11.574,11.574,0,0,1-660.286,245.94Z" transform="translate(695.849 -224.23)"/><path class="a" d="M-663.869,233.142a1.723,1.723,0,0,1-2.581.115,1.723,1.723,0,0,1,.115-2.581,11.561,11.561,0,0,1,3.48-1.6.468.468,0,0,1,.59.59A11.536,11.536,0,0,1-663.869,233.142Z" transform="translate(696.205 -223.231)"/></svg>