<svg id="w_sunny" xmlns="http://www.w3.org/2000/svg" width="38.935" height="38.935" viewBox="0 0 38.935 38.935">
  <g id="그룹_519" data-name="그룹 519" transform="translate(0 0)">
    <g id="그룹_518" data-name="그룹 518">
      <circle id="타원_54" data-name="타원 54" cx="10.306" cy="10.306" r="10.306" transform="translate(7.07 27.13) rotate(-76.717)" fill="#ffc033"/>
      <path id="패스_1220" data-name="패스 1220" d="M155.469,113a1.73,1.73,0,1,1-3.446,0,11.422,11.422,0,0,1,1.311-3.551.463.463,0,0,1,.825,0A11.421,11.421,0,0,1,155.469,113Z" transform="translate(-134.021 -109.199)" fill="#ffc033"/>
      <path id="패스_1221" data-name="패스 1221" d="M113.156,129.659a1.73,1.73,0,1,1-2.437,2.437,11.43,11.43,0,0,1-1.584-3.437.462.462,0,0,1,.583-.583A11.424,11.424,0,0,1,113.156,129.659Z" transform="translate(-103.364 -122.667)" fill="#ffc033"/>
      <path id="패스_1222" data-name="패스 1222" d="M92.789,170.434a1.73,1.73,0,1,1,0,3.446,11.424,11.424,0,0,1-3.551-1.311.463.463,0,0,1,0-.825A11.424,11.424,0,0,1,92.789,170.434Z" transform="translate(-88.985 -152.947)" fill="#ffc033"/>
      <path id="패스_1223" data-name="패스 1223" d="M109.445,209.665a1.73,1.73,0,1,1,2.437,2.437,11.423,11.423,0,0,1-3.437,1.584.462.462,0,0,1-.583-.583A11.423,11.423,0,0,1,109.445,209.665Z" transform="translate(-102.453 -180.521)" fill="#ffc033"/>
      <path id="패스_1224" data-name="패스 1224" d="M150.22,227.507a1.73,1.73,0,1,1,3.446,0,11.426,11.426,0,0,1-1.311,3.551.463.463,0,0,1-.825,0A11.431,11.431,0,0,1,150.22,227.507Z" transform="translate(-132.733 -192.375)" fill="#ffc033"/>
      <path id="패스_1225" data-name="패스 1225" d="M189.451,213.376a1.73,1.73,0,1,1,2.437-2.437,11.424,11.424,0,0,1,1.584,3.437.463.463,0,0,1-.583.583A11.425,11.425,0,0,1,189.451,213.376Z" transform="translate(-160.308 -181.432)" fill="#ffc033"/>
      <path id="패스_1226" data-name="패스 1226" d="M207.293,175.682a1.73,1.73,0,1,1,0-3.446,11.423,11.423,0,0,1,3.551,1.311.463.463,0,0,1,0,.825A11.429,11.429,0,0,1,207.293,175.682Z" transform="translate(-172.161 -154.234)" fill="#ffc033"/>
      <path id="패스_1227" data-name="패스 1227" d="M193.163,133.37a1.73,1.73,0,1,1-2.437-2.437,11.424,11.424,0,0,1,3.437-1.584.463.463,0,0,1,.583.583A11.433,11.433,0,0,1,193.163,133.37Z" transform="translate(-161.218 -123.578)" fill="#ffc033"/>
    </g>
  </g>
</svg>
