<?xml version="1.0" encoding="utf-8"?>
<!-- Generator: Adobe Illustrator 25.4.1, SVG Export Plug-In . SVG Version: 6.00 Build 0)  -->
<svg version="1.1" id="Layer_1" xmlns="http://www.w3.org/2000/svg" xmlns:xlink="http://www.w3.org/1999/xlink" x="0px" y="0px" viewBox="0 0 1080 706" style="enable-background:new 0 0 1080 706;" xml:space="preserve">
<style type="text/css">
	.st0{clip-path:url(#SVGID_00000074435217456613984500000006994337191740846220_);}
	.st1{
		stroke:#FFFFFF;
		fill: rgba(255, 255, 255, 0.08);
	}
	.st2{fill:#A6F0F2;}
	.st3{fill:#AEDD4F;}
	.st4{fill:#FFC468;}
	.st5{fill:#77C3FF;}
	.st6{fill:#FFD69F;}
	.st7{fill:#C08FFC;}
	.st8{fill:#FFB3B3;}
	.st9{fill:#FFFB6C;}
</style>
<g>
	<g>
		<g>
			<g>
				<defs>
					<rect id="SVGID_1_" y="0" width="1080" height="706"/>
				</defs>
				<clipPath id="SVGID_00000124152392776582094150000011805476963944241804_">
					<use xlink:href="#SVGID_1_"  style="overflow:visible;"/>
				</clipPath>
				<g style="clip-path:url(#SVGID_00000124152392776582094150000011805476963944241804_);">
					<path class="st1" d="M176.8,451.6l-74.5,163.9c-1.2,2.7,0,6,2.7,7.2c0.7,0.3,1.5,0.5,2.3,0.5l286.6-3.4l16-22l-3.5-50.5
						L385,424.8L176.8,451.6z"/>
					<path class="st1" d="M422.5,499.7l10.2,101.4l13,20.1c3.8,5.9,10.7,9.2,17.7,8.5l272.1-26.4l-16-116.9l-9.4-7.1L422.5,499.7z"
						/>
					<path class="st1" d="M421.4,493.8l295-17.8v-27.4l-70.7,5.9v-5l-225.3,10.3L417,465L421.4,493.8z"/>
					<path class="st1" d="M411.7,452.6L649,442.4l0.5,6.3l70-2.2l11.1-38.6l-88.3-3.6l-233.6,6l-3.4,24.1L411.7,452.6z"/>
					<path class="st1" d="M401.1,408.8l124.5-6.4l218.2-2.6l17.9-32.8l-4-63l-360.2,34v47L401.1,408.8z"/>
					<path class="st1" d="M745.4,603.6l42.4-3.8v-13.3l-12.4-123.3l-11.6-71.4l-11-0.9l-22.3,44.6v31.9L745.4,603.6z"/>
					<path class="st1" d="M181,442.1l37.5-84.7L368.8,340l13.8,69.5L181,442.1z"/>
					<path class="st1" d="M237.6,344.3l129.4-9.1l-6.4-55.4l-83.5-2.2h-23.6l-22.2,51.2L237.6,344.3z"/>
					<path class="st1" d="M620.8,255.6l-4.8-25.1L561.2,78.4l-35.6,5.1l45.5,147.1l-2.1,27.7L620.8,255.6z"/>
					<path class="st1" d="M567.9,261.6l0.6,5.2l-179.2,13.5l4.4,51.8L631.3,310l-9.6-50.1L567.9,261.6z"/>
					<path class="st1" d="M631.3,241.1l2.5,31.2l7.4,37.7l114.7-16l-14.3-105.9l-25.9,1.8l-49.8,23.6L631.3,241.1z"/>
					<path class="st1" d="M623,214.4l18.3,2.9l66.3-32.1l1.6-19.3l-51-107.4l-88.6,20L623,214.4z"/>
					<path class="st1" d="M681.5,58.4l5.7,39.2l34.5,74.6l10.2,6.4h8.6l-9-108.4l-6.6-11.9L681.5,58.4z"/>
					<path class="st1" d="M269.2,241.1l12.6,8l111.9,3.4l155.4-7.5l4.5-25.3l-26.7-107.9l-13-23.5l-204.1,25.1L269.2,241.1z"/>
					<path class="st1" d="M782.2,53.7l-13.9,19.5l8.5,98.6l33.6-5.5l30.8-49.9l30.3-7.3l64.4-8.5l-3.8-72.1L782.2,53.7z"/>
					<path class="st1" d="M935.9,28.6l4.3,71.6l42.2-9l35.4,1.3l38.4-12.4l-4.7-27.3l-3.8-30.7l-9.4-22.6h-6L935.9,28.6z"/>
					<path class="st1" d="M826.4,598.1l60-2.3l36.7-77.8l-49.3-59.3l-48-48l-22.1-4.7L826.4,598.1z"/>
					<path class="st1" d="M910.3,580.8l7.2,19l278,91.7l18.3-64.8l-150.3-20.9l-133.4-57L910.3,580.8z"/>
					<path class="st1" d="M1094.7,342.2l4.7,6.2l-7.7-17.6l0,0l11.7-3.4l9.4-21.2l12.3-2.7l-19.8-9.8h-23.6l-92.5,23.5l-5.1-3
						l-6.4-6.8l-9.4-18.2l0.3-13.5l-3.7,19.9l-10.3,3.8l-19.9-7.9l-14.8-7.2h-42.5l-14.9-4.6l-3.8,2.1l-9,37.4l-5-1.2l9.6-39.6
						l7.7-4.2l16.2,5h42.9l15.8,7.7l17.8,7.1l5.7-2.1l4.6-25.4l9.2-12.9l0.4-1.1l8.5-18.4l12.8-20.4l48.2-47.4l20-33.3v-23.9
						l-8.1-25.6l-39.7,11.1h-33.7l-43.1,10.7l-73.8,9.8l-21.2,6L813,169.7l-36.2,5.5l24.9,225.5l24.7,5.4l51.2,52.2l45.4,55.4h6.1
						l21.6-34.5l17.9,3.1l-28,48.5l-0.4,4l31.8,23.8l97.3,39.6l95.1,3.9L1094.7,342.2z"/>
					<path class="st1" d="M238.4,122.9L228,88.1l-185.8-51l-30.7,9.4L4.7,67l34.1,28l40.9,19.6l22,22.3L138,157l5.7-4.7l47.2-10.6
						l38.9-6.3L238.4,122.9z"/>
					<path class="st1" d="M228.5,141.2l-90,222.2L-7.2,380.5l-6-3.9L-32,320.3l-10.2-79.2L-3,88.1l6.6-15.2l35.7,27.6l38.3,18.8
						l21,22.3l26.5,17.9l15,5.7l8-8.2L228.5,141.2z"/>
					<path class="st1" d="M128.8,386.6L95,460.7l-80.5-4.1L-3.4,403l111.7-16.4H128.8z"/>
					<path class="st1" d="M84.2,485.8l-47.5,112h-8.6l-9.3-114.1l42.2-5.1L84.2,485.8z"/>
					<path class="st1" d="M51.5,706.5L84.7,659c2.4-3.4,6.3-5.4,10.5-5.4H151l-6.4,48L51.5,706.5z"/>
					<path class="st1" d="M163.7,653.2l181.8-7.4l64.8-0.1l4.4,14.2l-25,42.1H159.1L163.7,653.2z"/>
					<path class="st1" d="M429.8,736.6l24.5-33.9c14.2-19.6,36.1-32.2,60.2-34.5l261-24.8h50.4l62,6.3l287.6,87v68.2L429.8,736.6z"
						/>
					<path class="st1" d="M393.7-130.1l-62.4,180L353.9,67L665.6-0.4l171.2-27.3l258.6-85.5L393.7-130.1z"/>
					<path class="st1" d="M274.2,20l64.6-150.1l-280.3-6.8L26-41.4L38.8,1.3l199.6,40.9L274.2,20z"/>
					<path class="st1" d="M1078.3-6.4l17.1,128.3l-8.5,30.9l-72.5,84.2l-14.5,39.7l8.5,9.2l53.7-9.2l260.1-147.1L1198.5-49.9
						L1078.3-6.4z"/>
				</g>
			</g>
		</g>
	</g>
</g>
<g xmlns="http://www.w3.org/2000/svg" transform="translate(-79.215 -2.336)">
	<path id="c_a011" class="st2" d="M410.7,338.3l-20.6,1.2l0.4-22.9l18.1-2.2L410.7,338.3z"/>
	<path id="c_a012" class="st2" d="M425.2,337.4l-12.8,0.8l-2.1-24l13.2-1.6L425.2,337.4z"/>
	<path id="c_a014" class="st2" d="M441.6,334.7l-3.7,2l-11,0.6l-0.7-10l14.5-0.5L441.6,334.7z"/>
	<path id="c_a013" class="st2" d="M440.5,325.2l-14.4,0.4l-0.9-13.3l12.5-1.5l1.2,0.4L440.5,325.2z"/>
	<path id="c_a006" class="st2" d="M438.6,309.4l-0.8-0.2l-38.9,4.7l3.8-12.3l34.7-3.1L438.6,309.4z"/>
	<path id="c_a005" class="st2" d="M426.6,297.7l10.4-0.9l-1.2-10.4l-10.4,0.2L426.6,297.7z"/>
	<path id="c_a003" class="st2" d="M423.7,286.7l-9,0.2l1.3,11.8l8.9-0.8   L423.7,286.7z"/>
	<path id="c_a003" class="st2" d="M405.2,287.1l-47.4,1l2.9,30.3l36.2-4.4L405.2,287.1z"/>
	<path id="c_a004" class="st2" d="M403,299.8l11.3-1l-1.3-11.9l-6,0.1   L403,299.8z"/>
	<path id="c_a009" class="st2" d="M372.8,318.7l-0.3,21.8l-13.2,0.8l1.4-21.1L372.8,318.7z"/>
	<path id="c_a010" class="st2" d="M388.7,316.8l-0.4,22.8l-14.1,0.8l0.3-21.9L388.7,316.8z"/>
	<path id="c_a008" class="st2" d="M359,319.4l-1.5,22l-15.9,0.9l1.5-26.5l15.7,2.8L359,319.4z"/>
	<path id="c_a007" class="st2" d="M341.5,315.4l-1.6,26.9l-31.6,1.9l14-32.2L341.5,315.4z"/>
	<path id="c_a002" class="st2" d="M358.8,316.8l-35.8-6.4l9.5-22l24,5L358.8,316.8z"/>
	<path id="c_a001" class="st2" d="M353.1,279.8l-0.2,11.1l-19.7-4.1l4.7-10.8L353.1,279.8z"/>
	<path id="c_a033" class="st3" d="M416.1,415.5l-9.8,1.6l-7.4-26.2l10.6-2.1L416.1,415.5z"/>
	<path id="c_a034" class="st3" d="M434.7,412.5l-16.9,2.8l-6.6-26.7l15.9-3.2L434.7,412.5z"/>
	<path id="c_a035" class="st3" d="M456.2,408.9l-19.8,3.3l-7.1-25.3l22.6-3.6L456.2,408.9z"/>
	<path id="c_a021" class="st3" d="M448.4,362.2l-18.3,2.5L427,347l18.6-2.2L448.4,362.2z"/>
	<path id="c_a020" class="st3" d="M428.4,364.8l-24.5,3.3l-4.4-17.9l25.8-3L428.4,364.8z"/>
	<path id="c_a032" class="st3" d="M404.6,417.4l-11,1.8l-6.7-25.8l10.4-2.1L404.6,417.4z"/>
	<path id="c_a019" class="st3" d="M402.2,368.4l-16.9,2.3l-5-18.2l17.4-2L402.2,368.4z"/>
	<path id="c_a023" class="st3" d="M301.5,401.5v10.3l-20.2-5l3.6-8.1L301.5,401.5z"/>
	<path id="c_a024" class="st3" d="M301.3,413.5l-0.9,4.8l-22.8-3.4l3-6.5L301.3,413.5z"/>
	<path id="c_a025" class="st3" d="M303.1,434.1l-36.9,6.1l10.7-23.7l23.5,3.5L303.1,434.1z"/>
	<path id="c_a026" class="st3" d="M313.6,432.4l-8.9,1.5l-2.8-14.6l1.2-6.2v-1.9l8.6-1.4L313.6,432.4z"/>
	<path id="c_a027" class="st3" d="M332.1,429.4l-16.8,2.8l-1.8-22.7l15.6-2.6L332.1,429.4z"/>
	<path id="c_a028" class="st3" d="M344.8,427.3l-11,1.8l-2.9-22.5l8.5-1.4L344.8,427.3z"/>
	<path id="c_a029" class="st3" d="M360.7,424.7l-14.2,2.3l-5.5-22.1l14.6-2.4L360.7,424.7z"/>
	<path id="c_a030" class="st3" d="M377.5,421.9l-15.1,2.5l-5.1-22.2l15.5-2.6L377.5,421.9z"/>
	<path id="c_a031" class="st3" d="M391.9,419.5l-12.7,2.1l-4.9-23.1l-0.5-2.4l11.4-2.3L391.9,419.5z"/>
	<path id="c_a018" class="st3" d="M383.5,370.9l-20.9,2.8l-3.8-18.7l19.7-2.3L383.5,370.9z"/>
	<path id="c_a017" class="st3" d="M340.2,389.1l-0.1,0.1l23.3-3.2l-6.2-30.9   l-22.6,2.7L340.2,389.1z"/>
	<path id="c_a016" class="st3" d="M308.8,360.8l5.7,32l24-3.3l-5.6-31.5   L308.8,360.8z"/>
	<path id="c_a015" class="st3" d="M313.5,396.8l-24.7-6.6l12.9-28.5l5.4-0.6L313.5,396.8z"/>
	<path id="c_a022" class="st3" d="M288.1,391.7l14.8,4l-1.3,4.1l-16-2.7L288.1,391.7z"/>
	<path id="c_a049" class="st3" d="M463.8,461.2l-18.4,1.8l-5.3-25.5l19.4-2.1L463.8,461.2z"/>
	<path id="c_a057" class="st3" d="M443.7,463.2l-13.8,1.4l-2.3-11.6l13.6-1.6L443.7,463.2z"/>
	<path id="c_a048" class="st3" d="M440.9,449.6l-13.6,1.6l-2.4-12.1l13.4-1.4L440.9,449.6z"/>
	<path id="c_a047" class="st3" d="M423.4,451.8l-13.2,1.4L407,441l14-1.5L423.4,451.8z"/>
	<path id="c_a056" class="st3" d="M426,464.9l-28,2.8l-2.6-11.1l28.3-3.1L426,464.9z"/>
	<path id="c_a046" class="st3" d="M408.5,453.4l-13.5,1.5l-2.9-12.3l13.2-1.4L408.5,453.4z"/>
	<path id="c_a045" class="st3" d="M396.3,467.9l-14.3,1.4l-3.6-25.2l11.9-1.3L396.3,467.9z"/>
	<path id="c_a055" class="st3" d="M380.4,469.5l-19.2,1.9l-1.2-10.9l18.8-1.9L380.4,469.5z"/>
	<path id="c_a044" class="st3" d="M378.6,456.9l-18.8,1.9l-1.3-12.5l18.3-2L378.6,456.9z"/>
	<path id="c_a043" class="st3" d="M356.1,459.4l-17.5,1.7l-1.1-12.5l17.2-1.9L356.1,459.4z"/>
	<path id="c_a054" class="st3" d="M357.5,471.7l-17.7,1.7l-0.9-10.8l17.5-1.7L357.5,471.7z"/>
	<path id="c_a053" class="st3" d="M338.1,473.7l-13.2,1.3l-1-10.8l13.2-1.3L338.1,473.7z"/>
	<path id="c_a042" class="st3" d="M337,461.2l-13.2,1.3l-1.1-12.3l13.2-1.4L337,461.2z"/>
	<path id="c_a041" class="st3" d="M322.1,462.6l-14,1.3l-1-12.1l13.9-1.5L322.1,462.6z"/>
	<path id="c_a052" class="st3" d="M323.2,475.1l-14,1.4l-0.9-10.9l14-1.3L323.2,475.1z"/>
	<path id="c_a051" class="st3" d="M307.5,476.7l-10.9,1.1l-1.2-10.9l11.2-1.1L307.5,476.7z"/>
	<path id="c_a040" class="st3" d="M306.4,464.1l-23.6,2.3l-1-11.8l23.6-2.5L306.4,464.1z"/>
	<path id="c_a050" class="st3" d="M294.9,477.9l-11,1.1l-1-10.9l10.7-1L294.9,477.9z"/>
	<path id="c_a039" class="st3" d="M282.2,479.2l-5.6,0.6l-2.5-24.3l6-0.6L282.2,479.2z"/>
	<path id="c_a038" class="st3" d="M274.9,479.9l-9,0.9l-1.1-10.7l9-0.8L274.9,479.9z"/>
	<path id="c_a037" class="st3" d="M264.2,481l-4.6,0.5l-3.4-1.7l-0.5-8.9l7.4-0.6L264.2,481z"/>
	<path id="c_a036" class="st3" d="M273.6,467.6l-18,1.5l-0.5-4.6l2.3-4.8l3.9-0.5l3.6-2.8l7.5-0.8L273.6,467.6z"/>
	<path id="c_a078" class="st3" d="M468.2,491.7l-23.6,2.4l-0.5-5.2l23.3-2L468.2,491.7z"/>
	<path id="c_a077" class="st3" d="M467.2,485.2l-23.2,2l-0.5-4.6l23-1.9L467.2,485.2z"/>
	<path id="c_a067" class="st3" d="M466.2,478.9l-23.1,2l-3.6-10.6l24.9-2.5L466.2,478.9z"/>
	<path id="c_a076" class="st3" d="M440.2,494.5l-14.7,1.5l-1.4-11.8l14.3-1.3L440.2,494.5z"/>
	<path id="c_a066" class="st3" d="M438.1,481.2l-14.1,1.2l-0.5-10.5l11.5-1.2L438.1,481.2z"/>
	<path id="c_a065" class="st3" d="M422.3,482.6l-10.3,0.9l-0.6-10.4l10.4-1.1L422.3,482.6z"/>
	<path id="c_a075" class="st3" d="M423.8,496.2l-22.5,2.3l-1.9-12.1l23-2L423.8,496.2z"/>
	<path id="c_a064" class="st3" d="M410.3,483.7l-17.1,1.5l-1.3-10.1l17.8-1.8L410.3,483.7z"/>
	<path id="c_a063" class="st3" d="M391.5,485.4l-12.5,1.1l-1.2-9.9l12.4-1.3L391.5,485.4z"/>
	<path id="c_a074" class="st3" d="M399.6,498.6l-18.9,1.9l-1.6-12.4l18.6-1.7L399.6,498.6z"/>
	<path id="c_a073" class="st3" d="M379.1,500.7l-14.1,1.4l-1.6-12.5l14.2-1.3L379.1,500.7z"/>
	<path id="c_a062" class="st3" d="M377.3,486.6l-14.2,1.3l-0.7-9.7l13.7-1.4L377.3,486.6z"/>
	<path id="c_a061" class="st3" d="M361.4,488l-13.8,1.2l-1.4-9.5l14.5-1.5L361.4,488z"/>
	<path id="c_a072" class="st3" d="M363.3,502.3l-13.1,1.3l-2.3-12.7l13.7-1.2L363.3,502.3z"/>
	<path id="c_a071" class="st3" d="M348.5,503.8l-11.3,1.1l-3.3-12.8l12.3-1.1L348.5,503.8z"/>
	<path id="c_a060" class="st3" d="M345.9,489.4l-26,2.3l-0.7-9.2l25.2-2.6L345.9,489.4z"/>
	<path id="c_a070" class="st3" d="M335.5,505.1l-10.9,1.1l-4.3-12.8l11.9-1.1L335.5,505.1z"/>
	<path id="c_a059" class="st3" d="M315.9,492.1l-11,1l-0.1-9.1l10.1-1L315.9,492.1z"/>
	<path id="c_a068" class="st3" d="M307,508l-11.8,1.2l-1.9-13.4l10.1-0.9L307,508z"/>
	<path id="c_a058" class="st3" d="M303.2,493.2l-10.1,0.9l-1.2-8.8l11.3-1.1L303.2,493.2z"/>
	<path id="c_a069" class="st3" d="M320.3,506.7l-11.6,1.2l-3.6-13.1l11.1-1L320.3,506.7z"/>
	<path id="c_a098" class="st4" d="M449.6,619.3l-27.2-0.5L421,556l25-2.8L449.6,619.3z"/>
	<path id="c_a099" class="st4" d="M475,613.9c-3.5,3.6-8.3,5.7-13.3,5.6l-10.5-0.2l-3.5-66.3l28.6-3.2l3.6,50.5   C480.3,605.4,478.5,610.3,475,613.9z"/>
	<path id="c_a087" class="st4" d="M476.4,545l-28.6,2.4l-1.2-15.3l27.3-2.7L476.4,545z"/>
	<path id="c_a086" class="st4" d="M473.7,527.7l-27.2,2.7l-1.3-15.9l26.1-1.6L473.7,527.7z"/>
	<path id="c_a085" class="st4" d="M446.1,547.5l-24.5,2l-2.2-33.5l24.1-1.5L446.1,547.5z"/>
	<path id="c_a084" class="st4" d="M419.9,549.6l-22,1.8l-2.8-34l22.6-1.4L419.9,549.6z"/>
	<rect id="c_a091" x="217.5" y="591.6" class="st4" width="18.1" height="24.7"/>
	<path id="c_a090" class="st4" d="M235.6,575.1v14.7h-33.4l6.7-14.7H235.6z"/>
	<path id="c_a089" class="st4" d="M235.6,559.1v14.4h-26l6.5-14.4H235.6z"/>
	<path id="c_a096" class="st4" d="M365.3,617.7l-32.2-0.6l-1-51.1l30.9-3.5L365.3,617.7z"/>
	<path id="c_a095" class="st4" d="M331.3,617.1l-36.9-0.7l-3-21.9l39.5-1L331.3,617.1z"/>
	<path id="c_a094" class="st4" d="M292.7,616.4l-39-0.7l-0.7-20.2l36.6-0.9L292.7,616.4z"/>
	<path id="c_a093" class="st4" d="M304.3,585.3l-24.4,1.8l-1.2-15.1l24.8-2.8L304.3,585.3z"/>
	<path id="c_a092" class="st4" d="M278.2,587.3l-25.3,1.9l-0.5-14.2l24.7-2.8L278.2,587.3z"/>
	<path id="c_a097" class="st4" d="M420.6,618.8l-26.8-0.5v-59.2l25.5-2.9L420.6,618.8z"/>
	<path id="c_a088" class="st4" d="M235.6,535.3v22.1H217l10-22.1H235.6z"/>
	<path id="c_a080" class="st4" d="M331.2,556.9l-80.7,6.7l-2.6-31.9l79.8-4L331.2,556.9z"/>
	<path id="c_a079" class="st4" d="M287.7,528l-39.8,2l-1.9-23.4l13.1-14.5l17.8,2.2l10.3,22.9L287.7,528z"/>
	<path id="c_a083" class="st4" d="M396.3,551.6l-33.5,2.8l-3.4-34.7l34.1-2.1L396.3,551.6z"/>
	<path id="c_a082" class="st4" d="M361.1,554.5l-21.7,1.8l-1.4-10.8l22.1-0.9L361.1,554.5z"/>
	<path id="c_a081" class="st4" d="M359.9,542.8l-22.1,0.9l-1.6-13l22.4-1.8L359.9,542.8z"/>
	<path id="c_a101" class="st2" d="M652.6,123.6l-30.4,6.5l-4.9-14.6l30.5-6L652.6,123.6z"/>
	<path id="c_a100" class="st2" d="M647.4,107.9l-30.5,6l-9-27.1l24-6.1l7.5,3.2L647.4,107.9z"/>
	<path id="c_a102" class="st2" d="M657.4,137.6l-30.5,6.5l-4.1-12.3l30.4-6.5L657.4,137.6z"/>
	<path id="c_a103" class="st2" d="M662.6,153l-30.6,6.3l-4.5-13.6l30.5-6.5L662.6,153z"/>
	<path id="c_a104" class="st2" d="M668.3,169.9l-31.2,4.6l-4.6-13.6l30.6-6.3L668.3,169.9z"/>
	<path id="c_a105" class="st2" d="M673.3,185l-32,2.5l-3.8-11.3l31.2-4.6L673.3,185z"/>
	<path id="c_a106" class="st2" d="M682.4,211.9l-32.5,1.3l-8-24l32-2.5L682.4,211.9z"/>
	<path id="c_a107" class="st2" d="M652,232.7l2.9-4.4l-4.5-13.4l32.5-1.3l6.5,19.3L652,232.7z"/>
	<path id="c_a108" class="st2" d="M693.5,258.1l-45.1,2.5v-26.1l41.5,0.2L693.5,258.1z"/>
	<path id="c_a113" class="st5" d="M712.7,126.4l-41,6.4l-2.7-7l35.3-8.9l7.7,4L712.7,126.4z"/>
	<path id="c_a109" class="st5" d="M684.9,111.9l-17.7,3.2l-12.8-33.6l9,4.1l11.9-9.4L684.9,111.9z"/>
	<path id="c_a112" class="st5" d="M713,119.4l-8.5-4.3l-36.1,9.1l-2.9-7.6l41.1-7.4l4.3,3.6l43.2-8.6l2.8,6"/>
	<path id="c_a119" class="st5" d="M732.1,210.9l-15.6,8.6l-12.9-2.8l-4.5-11.8l7.6,0.9l16-6.7L732.1,210.9z"/>
	<path id="c_a120" class="st5" d="M749.9,201.1l-16.2,9l-9.3-11.6l19.4-8.1L749.9,201.1z"/>
	<path id="c_a118" class="st5" d="M733.4,192.9l-26.9,11.2l-8-1l-1.8-4.8l34.3-11.7L733.4,192.9z"/>
	<path id="c_a117" class="st5" d="M730.4,185.1L696,196.7l-6-15.9l35.2-9L730.4,185.1z"/>
	<path id="c_a116" class="st5" d="M724.6,170.2l-35.2,9l-10.2-26.7l34.4-5.9l6.8,2.3l-2.1,5.3L724.6,170.2z"/>
	<path id="c_a114" class="st5" d="M714.4,141.2l-0.7-0.2l-36.5,6.4l-4.9-12.9l40.6-6.4L714.4,141.2z"/>
	<path id="c_a110" class="st5" d="M705.9,107.7l-21.6,3.9L674.5,75l4.6-3.7l18.6-1.9L705.9,107.7z"/>
	<path id="c_a111" class="st5" d="M753.4,102.8l-42,8.3l-3.7-3.2l-8.3-38.7l36.4-3.8L753.4,102.8z"/>
	<path id="c_a115" class="st5" d="M764.6,126.6l-42.4,17.3l-6-2.1l-2.4-20.9l43.9-9L764.6,126.6z"/>
	<path id="c_a121" class="st5" d="M780.4,160.2l-41.8,18.1l-10.2-17.6l-6.1-0.9l-2.2-5.7l1.8-4.7l0.3,0.1l44.6-18.2L780.4,160.2z"/>
	<path id="c_a122" class="st5" d="M787,174.1l-2,7.4l-33.6,18.7l-11.8-20.4l41.6-18.1L787,174.1z"/>
	<path id="c_a128" class="st5" d="M812.9,179.7c-1.9,0.6-3.9-0.3-4.8-2l-22.7-44.1l25.6-3.2l4.8,45   C816.1,177.3,814.8,179.2,812.9,179.7z"/>
	<path id="c_a127" class="st5" d="M810.5,125.7l-27.5,3.2l-11-21.4l36.2-3.2L810.5,125.7z"/>
	<path id="c_a126" class="st5" d="M808.1,102.6L792,104l-3.1-16.5h17.6L808.1,102.6z"/>
	<path id="c_a125" class="st5" d="M790.3,104.2l-19.1,1.7l-1.6-3.2l0.7-13.3l16.9-1.8L790.3,104.2z"/>
	<path id="c_a123" class="st5" d="M787,65.3v20.5l-16.6,1.8l1.2-22.3H787z"/>
	<path id="c_a124" class="st5" d="M806.3,85.8h-17.6V65.3h15.4L806.3,85.8z"/>
	<path id="c_a131" class="st5" d="M495.9,331.2l-20.2,2.2l-3.1-29.5l17.9-1.6L495.9,331.2z"/>
	<path id="c_a129" class="st5" d="M525.1,288.3l-41.3,0.5l1-3.7l40.2-3L525.1,288.3z"/>
	<path id="c_a130" class="st5" d="M525.1,290v7.5l-52.6,4.7l-1.2-11.6L525.1,290z"/>
	<path id="c_a132" class="st5" d="M529.4,327.6l-31.8,3.4l-5.4-28.9l33-2.9L529.4,327.6z"/>
	<path id="c_a135" class="st5" d="M562.4,324.1l-31.3,3.3l-2.8-18.6l29.7-2.2L562.4,324.1z"/>
	<path id="c_a136" class="st5" d="M575.5,322.7l-11.4,1.2l-4.3-17.5l13-1.3L575.5,322.7z"/>
	<path id="c_a133" class="st5" d="M572.5,303.5l-13.9,1.4l-30.6,2.2l-1.3-8.9v-10v-6.3l27.6-2l2.7,9.5l13.4-1L572.5,303.5z"/>
	<path id="c_a134" class="st5" d="M586.5,285.6l-28.2,2l-2.2-7.8l29.8-2.2L586.5,285.6z"/>
	<path id="c_a137" class="st5" d="M589.4,321.3l-12.2,1.3l-2.7-17.6l13.3-1.4L589.4,321.3z"/>
	<path id="c_a138" class="st5" d="M600.7,300.6l-11.3,1.2l-1.8-24.3l10.8-0.8L600.7,300.6z"/>
	<path id="c_a139" class="st5" d="M617.3,318.3l-26.2,2.8l-1.6-17.6l13-1.3l-2.5-25.6l13.5-1L617.3,318.3z"/>
	<path id="c_a140" class="st5" d="M637.9,290l3.8,25.7l-22.7,2.4l-3.7-42.7l11-0.8l1.6,10h14.3l1,5.4H637.9z"/>
	<path id="c_a141" class="st5" d="M672,312.4l-28.6,3.1l-3.5-23.8h5.4l-1.6-8.8h-14.3l-1.3-8.4l39.1-2.9L672,312.4z"/>
	<path id="c_a143" class="st5" d="M686.7,310.9l-13,1.4l-2.9-24.2l11.5-1L686.7,310.9z"/>
	<path id="c_a142" class="st5" d="M700.1,283.9l-29.5,2.5l-1.8-14.9l28-2.1L700.1,283.9z"/>
	<path id="c_a144" class="st5" d="M705.8,308.8l-17.4,1.9l-4.4-23.8l16.5-1.4L705.8,308.8z"/>
	<path id="c_a149" class="st5" d="M760.3,284.5l-41.8,2l-1.2-7.6l0.5-7.2l40.9,3.8L760.3,284.5z"/>
	<path id="c_a150" class="st5" d="M760.7,286.5l-39.1,19.6l-2.8-18l41.9-2L760.7,286.5z"/>
	<path id="c_a151" class="st5" d="M763.3,301.3l-37.6,4.7l35.3-17.7L763.3,301.3z"/>
	<path id="c_a158" class="st5" d="M814.8,234.5l-8.3,4.4l-1.6-5.3l-20.7,1.3l-9.9-8.5l30.4-13.9L814.8,234.5z"/>
	<path id="c_a145" class="st5" d="M803.9,211l-23.6,10.8l-8.6-16.2l25-10L803.9,211z"/>
	<path id="c_a146" class="st5" d="M778.8,222.6l-6.2,2.8l-25.7-3.7l16.7-12.8l6.6-2.6L778.8,222.6z"/>
	<path id="c_a156" class="st5" d="M828.5,276.3l-40.2-10.6l-0.2-0.6l39.1-2L828.5,276.3z"/>
	<path id="c_a157" class="st5" d="M827,261.4l-42.6,2.1l-2.6-26.7l21.9-1.4l1.8,6l13.6-7.2l6.3,11.9L827,261.4z"/>
	<path id="c_a147" class="st5" d="M782.6,263.6h-25.8l-38.1-3.1l1.4-18.3l24.9-19.1l27.4,3.9l9.4,8.1l-1.9,0.1L782.6,263.6z"/>
	<path id="c_a148" class="st5" d="M786.5,265.7L763,270l-2.3,3.8l-42.7-3.9l0.6-7.7l38.1,3.1h26.1l0,0l3.5-0.2L786.5,265.7z"/>
	<path id="c_a152" class="st5" d="M779,299.4l-14,1.7l-4.5-25.6l1.1,0.1l2.5-4.1l10.4-1.9L779,299.4z"/>
	<path id="c_a153" class="st5" d="M790.7,298l-10,1.2l-4.5-29.8l10.6-1.9L790.7,298z"/>
	<path id="c_a154" class="st5" d="M805.1,296.2l-12.7,1.6l-3.9-30.2l14.8,3.9L805.1,296.2z"/>
	<path id="c_a155" class="st5" d="M830.2,293.1l-23.4,2.9l-1.7-24l23.5,6.2L830.2,293.1z"/>
	<path id="c_a162" class="st2" d="M514.5,366.9l-14.9,1.4l-2.5-26.8l12.8-1.1L514.5,366.9z"/>
	<path id="c_a159" class="st2" d="M497,358.8l-18.1,0.8l-0.6-16.4l17.1-1.5L497,358.8z"/>
	<path id="c_a180" class="st2" d="M520.7,404.8l-38.5,2.1l-2.2-20.2l21.2-1.2l-0.9-9.5l17.8-1.3L520.7,404.8z"/>
	<path id="c_a181" class="st2" d="M480.7,408.7L479,393l-3.9,0.4l2,19.3l18-1l-0.2-3.8L480.7,408.7z"/>
	<path id="c_a161" class="st2" d="M499.3,383.8l-19.5,1.1l-0.4-11.4l18.8-0.8L499.3,383.8z"/>
	<path id="c_a160" class="st2" d="M498.1,371l-18.8,0.8l-0.4-10.5l18.2-0.8L498.1,371z"/>
	<path id="c_a169" class="st2" d="M674.5,359.8l-31.8,0.4l-6.1-30.5l36.2-4.1L674.5,359.8z"/>
	<path id="c_a187" class="st2" d="M683.2,401.1h-20.7l-1.3-34.5l20.7,0.4L683.2,401.1z"/>
	<path id="c_a186" class="st2" d="M660.8,401.1h-24.3l1.8-35l0.8-0.1l20.3,0.4L660.8,401.1z"/>
	<path id="c_a185" class="st2" d="M636.6,366.3l-1.8,34.8h-29.9l-3.1-32.4L636.6,366.3z"/>
	<path id="c_a168" class="st2" d="M634.6,355.1l-12.5,1.2l-3.1-25.4l11.7-1L634.6,355.1z"/>
	<path id="c_a167" class="st2" d="M620.4,356.5l-12.2,1.2l-3.8-25.5l12.8-1.1L620.4,356.5z"/>
	<path id="c_a166" class="st2" d="M606.6,357.9l-15.2,1.5l-4.4-25.6l15.9-1.4L606.6,357.9z"/>
	<path id="c_a165" class="st2" d="M589.7,359.5l-17.4,1.7l-3.1-26l16.1-1.4L589.7,359.5z"/>
	<path id="c_a184" class="st2" d="M603.2,401.1h-13.8l-18.9,1l-8.3-30.6l38-2.7L603.2,401.1z"/>
	<path id="c_a183" class="st2" d="M568.7,402.2l-17.5,0.9l-6-30.4l15.2-1.1L568.7,402.2z"/>
	<path id="c_a182" class="st2" d="M549.5,403.2l-27.2,1.4l-2.5-30.2l23.7-1.7L549.5,403.2z"/>
	<path id="c_a164" class="st2" d="M570.6,361.4l-22.8,2.2l-3.6-26.2l23.3-2L570.6,361.4z"/>
	<path id="c_a163" class="st2" d="M546.1,363.8l-29.9,2.9l-4.5-26.4l30.8-2.7L546.1,363.8z"/>
	<path id="c_a198" class="st2" d="M829.9,377.7l-3.7,10.2l-13.3-0.6l3.1-10.6L829.9,377.7z"/>
	<path id="c_a199" class="st2" d="M825.7,389.6l-3.4,9.5h-12.8l3-10.1L825.7,389.6z"/>
	<path id="c_a197" class="st2" d="M810.7,388.9l-3,10.2h-5l2.5-10.5L810.7,388.9z"/>
	<path id="c_a196" class="st2" d="M797,388.3l-1.5,10.8h-11.8l1.8-11.4L797,388.3z"/>
	<path id="c_a195" class="st2" d="M783.8,387.7l-1.8,11.4h-11.6l1.9-12L783.8,387.7z"/>
	<path id="c_a194" class="st2" d="M814.3,376.5l-3.1,10.7l-7.4-0.4l-2.9,12.3h-3.7l1.7-12.5l-26.3-1.2l1.9-11.9L814.3,376.5z"/>
	<path id="c_a193" class="st2" d="M772.9,373l-4.2,26.1h-15l5-29.9l11,0.4L772.9,373z"/>
	<path id="c_a192" class="st2" d="M756.9,369.1l-5,30H741l4.7-30.5L756.9,369.1z"/>
	<path id="c_a191" class="st2" d="M744,368.6l-4.7,30.5h-10.8l4.6-31L744,368.6z"/>
	<path id="c_a188" class="st2" d="M716.7,367.5l-3.9,31.6h-24.4l3.2-32.6L716.7,367.5z"/>
	<path id="c_a189" class="st2" d="M725.4,385.5l2.5-17.6l-9.5-0.4l-2.2,18   H725.4z"/>
	<path id="c_a190" class="st2" d="M716,387.2l-1.5,11.9h9l1.7-11.9H716z"/>
	<path id="c_a176" class="st2" d="M833.9,330.7l-29.8,3.7l-0.2-19.4l28.8-1.8L833.9,330.7z"/>
	<path id="c_a177" class="st2" d="M834.8,343l-30.5,3.7l-0.1-10.5l29.9-3.8L834.8,343z"/>
	<path id="c_a178" class="st2" d="M835.5,352.6l-31.1,4.4l-0.1-8.6l30.6-3.7L835.5,352.6z"/>
	<path id="c_a179" class="st2" d="M836.5,367.7l-32.1-6v-3l31.2-4.4L836.5,367.7z"/>
	<path id="c_a175" class="st2" d="M802.7,361.4l-16.2-3l-1.9-37.1V321l-3.6-4.3l21.2-1.4L802.7,361.4z"/>
	<path id="c_a174" class="st2" d="M784.8,358.2l-23.4,0.3l-3.1-40.5l20.5-1.3l4,4.9L784.8,358.2z"/>
	<path id="c_a173" class="st2" d="M759.8,358.6l-27.5,0.4l-2.5-39.1l26.9-1.7L759.8,358.6z"/>
	<path id="c_a172" class="st2" d="M730.6,359l-9.8,0.1l-2.9-38.5L728,320L730.6,359z"/>
	<path id="c_a171" class="st2" d="M719.1,359.1l-10.2,0.1l-3.1-37.3l10.5-1.2L719.1,359.1z"/>
	<path id="c_a170" class="st2" d="M707.3,359.3l-31,0.4l-1.7-34.3l29.5-3.3L707.3,359.3z"/>
	<path id="c_a222" class="st5" d="M582.9,431.1l-1.8,11.7l-13.5,0.4l0.9-11.4L582.9,431.1z"/>
	<path id="c_a204" class="st5" d="M575.3,429.8l-25.6,1.2l-0.2-16.1l25.6-0.6L575.3,429.8z"/>
	<path id="c_a221" class="st5" d="M566.8,431.8l-0.9,11.3l-12.2,0.4l-0.4-11.1L566.8,431.8z"/>
	<path id="c_a220" class="st5" d="M551.9,443.6l-15.1,0.4l0.5-10.8l14.1-0.6L551.9,443.6z"/>
	<path id="c_a203" class="st5" d="M548.1,431l-12.2,0.6l-1-16.4l13-0.3L548.1,431z"/>
	<path id="c_a202" class="st5" d="M534.2,431.6l-13.1,0.6l-0.8-16.7l13-0.3L534.2,431.6z"/>
	<path id="c_a219" class="st5" d="M535.7,433.2l-0.5,10.8l-19.4,0.5l-1.5-10.4L535.7,433.2z"/>
	<path id="c_a201" class="st5" d="M519.3,432.3l-12,0.5l-0.8-17l12-0.3L519.3,432.3z"/>
	<path id="c_a200" class="st5" d="M505.6,432.9l-15,0.7l0.7-6.6h3l1.1-11l9.5-0.2L505.6,432.9z"/>
	<path id="c_a218" class="st5" d="M514.6,448.8l-22.4,0.7l-3.2-12.7l1.2-1.5l22.3-1L514.6,448.8z"/>
	<path id="c_a213" class="st5" d="M716.8,424.5l-14.8,0.6l-1.4-13.7l14.3-0.3L716.8,424.5z"/>
	<path id="c_a212" class="st5" d="M700.3,425.2l-6.8,0.3l-0.7-13.9l6-0.1L700.3,425.2z"/>
	<path id="c_a211" class="st5" d="M691.8,425.5l-13.1,0.6l-1.2-14.2l13.6-0.3L691.8,425.5z"/>
	<path id="c_a227" class="st5" d="M718.8,438.9l-45.7,1.3l-1.3-12.1l45.2-1.9L718.8,438.9z"/>
	<path id="c_a210" class="st5" d="M677,426.2l-10.4,0.4l-0.4-14.4l9.6-0.2L677,426.2z"/>
	<path id="c_a209" class="st5" d="M664.9,426.7l-9.2,0.4l-1.3-14.6l10.2-0.2L664.9,426.7z"/>
	<path id="c_a226" class="st5" d="M671.4,440.2l-28.9,0.8l-0.1-11.7l27.7-1.2L671.4,440.2z"/>
	<path id="c_a208" class="st5" d="M653.9,427.1l-11.5,0.5l-0.1-14.9l10.3-0.2L653.9,427.1z"/>
	<path id="c_a207" class="st5" d="M630.4,413v14.3l-11.3,0.5l0.2-14.6L630.4,413z"/>
	<path id="c_a225" class="st5" d="M630.4,429v12.4l-13.4,0.4l0.2-12.2L630.4,429z"/>
	<path id="c_a224" class="st5" d="M615.4,429.7l-0.2,12.2l-15.5,0.4l0.5-11.9L615.4,429.7z"/>
	<path id="c_a206" class="st5" d="M617.6,413.3l-0.2,14.6l-26.5,1.2l-0.8-15.2L617.6,413.3z"/>
	<path id="c_a223" class="st5" d="M598.5,430.4l-0.5,11.9l-15.2,0.4l1.9-11.7L598.5,430.4z"/>
	<path id="c_a205" class="st5" d="M589.2,429.1l-12.1,0.5l-0.2-15.5l11.5-0.3L589.2,429.1z"/>
	<path id="c_a214" class="st5" d="M749.8,432.1l-19.6,1.2l-1.8-23.2l18.9,1.2L749.8,432.1z"/>
	<path id="c_a228" class="st5" d="M747.3,448.7l-15.8,0.7l-1.2-14.5l15.8-1L747.3,448.7z"/>
	<path id="c_a229" class="st5" d="M760.9,448.1l-11.9,0.6l-1.2-14.8l12.2-0.7L760.9,448.1z"/>
	<path id="c_a215" class="st5" d="M776,430.5l-24.5,1.5l-2.5-20.7l25.3,1.6L776,430.5z"/>
	<path id="c_a230" class="st5" d="M785.7,431.6l-0.2,15.4l-22.9,1l-0.9-15L785.7,431.6z"/>
	<path id="c_a216" class="st5" d="M788.9,413.8l-0.8,16l-10.4,0.6L776,413L788.9,413.8z"/>
	<path id="c_a217" class="st5" d="M805.3,414.8l-3.6,14.1l-11.9,0.7l0.8-15.8L805.3,414.8z"/>
	<path id="c_a231" class="st5" d="M801.3,430.7l-0.9,3.5l-13,1.5l0.1-4.1L801.3,430.7z"/>
	<path id="c_a232" class="st5" d="M800,435.9l-2.7,10.5l-10,0.5l0.1-9.6L800,435.9z"/>
	<path id="c_a236" class="st5" d="M574.4,489.2l-31.8,1.7l-2.8-27.3l31.3-1.6L574.4,489.2z"/>
	<path id="c_a235" class="st5" d="M540.9,491l-19.8,1.1l-2.7-27.4l19.7-1L540.9,491z"/>
	<path id="c_a234" class="st5" d="M519.4,492.1l-17,0.9l-1-6.8l17.4-0.8L519.4,492.1z"/>
	<path id="c_a233" class="st5" d="M518.6,483.7l-17.4,0.8l-2.3-15l3.9-4.1l13.9-0.7L518.6,483.7z"/>
	<path id="c_a253" class="st5" d="M788.5,476.7l-56.7,4.6l-1.2-21.3l57.1-5.1L788.5,476.7z"/>
	<path id="c_a244" class="st5" d="M717.6,467.9l-19.3,1l-1.6-13.1l19.7-1L717.6,467.9z"/>
	<path id="c_a243" class="st5" d="M696.6,469l-12.2,0.7l-1.5-13.2l12.1-0.6L696.6,469z"/>
	<path id="c_a252" class="st5" d="M718.9,481.5l-32.9,1.8l-1.4-11.9l33.2-1.8L718.9,481.5z"/>
	<path id="c_a251" class="st5" d="M684.3,483.3l-9.5,0.5l-0.9-11.9l9.1-0.5L684.3,483.3z"/>
	<path id="c_a242" class="st5" d="M682.7,469.8l-11.7,0.6l-1-13.3l11.2-0.6L682.7,469.8z"/>
	<path id="c_a250" class="st5" d="M673.1,483.9l-9.5,0.5l-0.7-11.9l9.3-0.5L673.1,483.9z"/>
	<path id="c_a241" class="st5" d="M669.3,470.5l-10.9,0.6l-1.1-13.3l11-0.5L669.3,470.5z"/>
	<path id="c_a249" class="st5" d="M661.9,484.5l-12.7,0.7l-1-11.9l12.9-0.7L661.9,484.5z"/>
	<path id="c_a240" class="st5" d="M646.4,471.8l-14,0.8l-1.3-13.4l14.2-0.7L646.4,471.8z"/>
	<path id="c_a248" class="st5" d="M647.5,485.3l-13.7,0.7l-1.2-11.8l13.9-0.8L647.5,485.3z"/>
	<path id="c_a247" class="st5" d="M632.1,486.1l-15.2,0.8l-1.2-11.8l15.2-0.8L632.1,486.1z"/>
	<path id="c_a239" class="st5" d="M630.8,472.6l-15.3,0.8l-1.4-13.5l15.3-0.8L630.8,472.6z"/>
	<path id="c_a238" class="st5" d="M613.8,473.5l-16.9,0.9l-1-13.6l16.5-0.8L613.8,473.5z"/>
	<path id="c_a246" class="st5" d="M615.2,487l-17.2,0.9l-0.9-11.8l16.9-0.9L615.2,487z"/>
	<path id="c_a245" class="st5" d="M594.5,488.1l-18.4,1l-1.5-12.1l18.7-1L594.5,488.1z"/>
	<path id="c_a237" class="st5" d="M593.2,474.3l-18.8,1l-1.6-13.4L592,461L593.2,474.3z"/>
	<path id="c_a297" class="st4" d="M552.3,528.4l-42.6,3.2l-1-9.3l42-3.3L552.3,528.4z"/>
	<path id="c_a296" class="st4" d="M553.9,538.3h-3.4l-0.5,1l-39.2,3l-1-9l42.7-3.3L553.9,538.3z"/>
	<path id="c_a295" class="st4" d="M550.7,551.1l-38.6,3.1l-1.1-10.1l38.3-2.9L550.7,551.1z"/>
	<path id="c_a294" class="st4" d="M552.9,567.4l-39,2.9l-1.6-14.4l38.6-3.1L552.9,567.4z"/>
	<path id="c_a293" class="st4" d="M555.5,586.4L516,590l-2-18.1l39.1-2.9L555.5,586.4z"/>
	<path id="c_a292" class="st4" d="M557.4,600.9l-37.9,3.3l-2.4-3.7l-1-8.8l39.5-3.6L557.4,600.9z"/>
	<path id="c_a291" class="st4" d="M549.6,603.3l-9.5,22.1c-4.3-0.1-8.3-2.3-10.6-5.9l-8.9-13.6L549.6,603.3z"/>
	<path id="c_a290" class="st4" d="M560.5,623.5l-18.5,1.8l9.5-22.2l6.1-0.5L560.5,623.5z"/>
	<path id="c_a289" class="st4" d="M572.6,622.3l-10.4,1l-2.8-20.9l9.4-0.8L572.6,622.3z"/>
	<path id="c_a257" class="st4" d="M572.8,515.5l-11.7,0.9l-1.6-13.8l12-0.9L572.8,515.5z"/>
	<path id="c_a256" class="st4" d="M559.5,516.6l-13.5,1.1l-1.5-13.9l13.4-1L559.5,516.6z"/>
	<path id="c_a255" class="st4" d="M544.3,517.8l-16.7,1.3l-1.6-13.9l16.9-1.3L544.3,517.8z"/>
	<path id="c_a254" class="st4" d="M525.9,519.2l-17.4,1.4l-1.5-13.9l17.2-1.3L525.9,519.2z"/>
	<path id="c_a288" class="st4" d="M588,620.8l-13.6,1.3l-3.8-20.7l13.2-1.2L588,620.8z"/>
	<path id="c_a258" class="st4" d="M585.1,514.6l-10.6,0.8l-1.3-13.9l10.9-0.9L585.1,514.6z"/>
	<path id="c_a287" class="st4" d="M608.2,618.9l-18.5,1.8l-4.3-20.5l21-1.8L608.2,618.9z"/>
	<path id="c_a286" class="st4" d="M619.3,617.8l-9.5,0.9l-3.2-37.6l9.6-1L619.3,617.8z"/>
	<path id="c_a285" class="st4" d="M635.2,616.2l-14.2,1.4l-1.9-24l13-5.6L635.2,616.2z"/>
	<path id="c_a284" class="st4" d="M654.7,614.4l-17.8,1.7l-3.2-28.7l16-6.9L654.7,614.4z"/>
	<path id="c_a283" class="st4" d="M669.7,612.9l-13.3,1.3L653,591l13.5-1.3L669.7,612.9z"/>
	<path id="c_a278" class="st4" d="M688.3,611.1l-16.9,1.6l-3.2-23.1l15.9-1.5L688.3,611.1z"/>
	<path id="c_a279" class="st6" d="M682,576.3l-0.6-2.9l-15.2,1.4l0.4,2.9   L682,576.3z"/>
	<path id="c_a280" class="st6" d="M666.7,578.5l0.4,2.9l15.5-1.4l-0.5-2.9   L666.7,578.5z"/>
	<path id="c_a281" class="st6" d="M683.3,583.7l-0.5-2.9l-15.6,1.4   l0.4,2.9L683.3,583.7z"/>
	<path id="c_a282" class="st6" d="M684,587.4l-0.6-2.9l-15.7,1.5l0.4,2.8   L684,587.4z"/>
	<path id="c_a277" class="st4" d="M713.7,608.6l-19.6,1.9l-4.1-27.2l19.5-2L713.7,608.6z"/>
	<path id="c_a276" class="st4" d="M743.8,605.7l-28.4,2.8l-3.2-20.8l28.8-3.5L743.8,605.7z"/>
	<path id="c_a275" class="st4" d="M782.4,601.9l-36.9,3.6l-2.9-21.6l32-3.8l5.9,6.7L782.4,601.9z"/>
	<path id="c_a272" class="st4" d="M803.6,571.7l-28.5,3.7v3l-32.7,3.9l-2.7-19.9l62.1-4.4L803.6,571.7z"/>
	<path id="c_a271" class="st4" d="M801.7,556.3l-62.1,4.4l-2.4-18.3l19.9-3.7l-0.7-4.1l42.3-2.4L801.7,556.3z"/>
	<path id="c_a270" class="st4" d="M798.3,530.5l-42.3,2.4l-2.5-15.3h-9.4l-0.6-6.3l52-2.9L798.3,530.5z"/>
	<path id="c_a269" class="st4" d="M795.3,506.7l-53.5,2.9l-2.7-21.1l47.2-3.7l6.7,4L795.3,506.7z"/>
	<path id="c_a268" class="st4" d="M739.1,502.4l-17,1.3l-2.4-13.6l17.7-1.4L739.1,502.4z"/>
	<path id="c_a267" class="st4" d="M720.4,503.8L705,505l-2.9-13.6l15.9-1.3L720.4,503.8z"/>
	<path id="c_a266" class="st4" d="M703.3,505.2l-17.7,1.4l-2.1-13.7l16.8-1.3L703.3,505.2z"/>
	<path id="c_a265" class="st4" d="M684,506.7l-18.4,1.5l-1.4-13.8l17.7-1.4L684,506.7z"/>
	<path id="c_a264" class="st4" d="M663.9,508.3l-13.1,1l-1.4-13.8l13.1-1L663.9,508.3z"/>
	<path id="c_a263" class="st4" d="M649.1,509.5l-11.2,0.9l-1.9-13.8l11.7-0.9L649.1,509.5z"/>
	<path id="c_a262" class="st4" d="M636.2,510.5l-11.4,0.9l-1.3-13.8l10.8-0.8L636.2,510.5z"/>
	<path id="c_a261" class="st4" d="M623.1,511.5l-10.9,0.9l-1.8-13.8l11.4-0.9L623.1,511.5z"/>
	<path id="c_a260" class="st4" d="M610.5,512.5l-11.2,0.9l-1.9-13.8l11.3-0.9L610.5,512.5z"/>
	<path id="c_a259" class="st4" d="M597.7,513.6l-10.8,0.9l-1-13.9l9.9-0.8L597.7,513.6z"/>
	<path id="c_a273" class="st4" d="M782.9,592.5l23.1-2.2l-2.1-16.9l-27,3.5   v3.2l5.2,6L782.9,592.5z"/>
	<path id="c_a274" class="st4" d="M783.2,594.2l0.9,7.6l23.1-2.3l-1-7.6   L783.2,594.2z"/>
	<path id="c_a303" class="st4" d="M850.8,482.3l-16.3,1.5l3.2-16.3l11.7,1.5L850.8,482.3z"/>
	<path id="c_a302" class="st4" d="M836.1,467.2l-2.9,15l-18.2,1.6l-2.1-19.5L836.1,467.2z"/>
	<path id="c_a312" class="st4" d="M862.4,594.1l-12.9,0.9l0.2-14.3l11.2-1L862.4,594.1z"/>
	<path id="c_a311" class="st4" d="M847.9,580.9l-0.2,14.2l-20.5,1.4l-1.5-13.7L847.9,580.9z"/>
	<path id="c_a310" class="st4" d="M860.7,578l-35.2,3.1l-1.6-14.8l35.2-3.3L860.7,578z"/>
	<path id="c_a309" class="st4" d="M859,561.3l-35.2,3.4l-1.7-15.4l35.4-2.7L859,561.3z"/>
	<path id="c_a308" class="st4" d="M857.3,544.8l-35.4,2.7l-1.4-12.5l35.5-2.2L857.3,544.8z"/>
	<path id="c_a307" class="st4" d="M855.9,531.1l-35.5,2.2l-1.7-15.8h35.8L855.9,531.1z"/>
	<path id="c_a305" class="st4" d="M830.5,515.7h-12l-1.7-16l13.1-0.1l-1.6,8L830.5,515.7z"/>
	<path id="c_a306" class="st4" d="M854.3,515.7h-22l-2.3-8.2l4.3-22.1L851,484L854.3,515.7z"/>
	<path id="c_a304" class="st4" d="M832.8,483.9l-2.7,13.9l-13.6,0.1l-1.4-12.6L832.8,483.9z"/>
	<path id="c_a301" class="st4" d="M845.3,455.1l-22.7-7.4l10.5-19.7l9-5.1L845.3,455.1z"/>
	<path id="c_a300" class="st4" d="M827,435.9l-5.8,10.9l-8.3-8.9l4.2-9.1L827,435.9z"/>
	<path id="c_a299" class="st4" d="M831.4,427.7l-3.5,6.6l-10.1-7.2l3.1-6.7L831.4,427.7z"/>
	<path id="c_a298" class="st4" d="M841.9,421.1l-9.4,5.3l-11-7.6l8.8-19.3l9.7,3.3L841.9,421.1z"/>
	<path id="c_a313" class="st7" d="M944.7,102.6l-15,2.5l-7.3,9.3l-3.9-4.1l-35.1,4.4l-0.5-5.1l-27.6,2.2L851,65.3h83.7L944.7,102.6z   "/>
	<path id="c_a314" class="st7" d="M885,149.6l-25.7,1.3l-3.6-37.3l25.8-2.1L885,149.6z"/>
	<path id="c_a315" class="st7" d="M880,163.9l-19.3,2l-1.3-13.3l19-1L880,163.9z"/>
	<path id="c_a320" class="st7" d="M899.1,284l-14.2,14.9h-10.8l-1.7-15L899.1,284z"/>
	<path id="c_a316" class="st7" d="M882.4,215l-18.2,1c-1.2-12.5-2.6-26.2-3.1-31.7l17.5-0.6L882.4,215z"/>
	<path id="c_a317" class="st7" d="M914.2,236.9c-18.3,1.1-43.5,2.6-47.7,2.5c-0.2-2.6-1.1-11.6-2.1-21.7l18.8-1L914.2,236.9z"/>
	<path id="c_a318" class="st7" d="M915.6,244.4l-6.3,20.6l-39.3-1.7l-1.9-16.7L915.6,244.4z"/>
	<path id="c_a319" class="st7" d="M909.2,266.7v9.7l-2.9,0.2l-5.5,5.7l-28.5-0.1l-2-17.2L909.2,266.7z"/>
	<path id="c_a321" class="st8" d="M928.6,334.8l-1.9,11.4l-40-2.1l-8.6-3.9l-2.2-27L928.6,334.8z"/>
	<path id="c_a322" class="st8" d="M941.1,352.4l-56.5-0.8l-5,5.4l-1.2-14.9l8,3.6l41.8,2.2l1.4-8.4L941.1,352.4z"/>
	<path id="c_a323" class="st8" d="M901.9,368.6h-21.5l-0.7-9.2l5.6-6l15.5,0.2L901.9,368.6z"/>
	<path id="c_a325" class="st8" d="M921.1,384.4l-4.3,6.4l-7.5-10.2l6.5-4L921.1,384.4z"/>
	<path id="c_a324" class="st8" d="M941.4,354.1l-19.3,28.7l-5.9-8.6l-9.4,5.9l8.8,12L900,402.9l-18-14.5l-1.5-18.2h23.2l-1.2-16.7   L941.4,354.1z"/>
	<path id="c_a329" class="st8" d="M968.5,483.6l-12.6,9.3l-15.6-7.6l13.4-15.4L968.5,483.6z"/>
	<path id="c_a328" class="st8" d="M952.5,468.8l-13.7,15.8L908.9,470l-1.7,1.4l-2.7-0.6l22.7-25.2L952.5,468.8z"/>
	<path id="c_a327" class="st8" d="M926,444.4l-23.4,25.9l-11-2.4l-2-19.6l17-21.9L926,444.4z"/>
	<path id="c_a326" class="st8" d="M905.3,425.2l-15.9,20.6l-2.5-24.8l7.5-5.8L905.3,425.2z"/>
	<path id="c_a330" class="st9" d="M916.1,490.6l-18.5,37.3l-4.3-43l12.2,1.1L916.1,490.6z"/>
	<path id="c_a331" class="st9" d="M934.3,498.4l-12.8,28l-21.1-0.1l17.4-35L934.3,498.4z"/>
	<path id="c_a332" class="st9" d="M956.5,508l-10.8,18.6l-22.4-0.1l12.5-27.3L956.5,508z"/>
	<path id="c_a336" class="st9" d="M951.1,553.4l-7.7,10.5l-41.7,4L898,531l1.6-3.1l46.5,0.3l3.5,2.7L951.1,553.4z"/>
	<path id="c_a338" class="st9" d="M979,553.2l-16.1,32.6l-8.4,0.8l-9.6-21.7l8-10.9l-0.1-1.3l7.3-13.8L979,553.2z"/>
	<path id="c_a337" class="st9" d="M952.7,586.8l-48.7,4.3l-2.2-21.4l41.5-4L952.7,586.8z"/>
	<path id="c_a335" class="st9" d="M988.9,515.9l-19.1,28.2l10.1,7.7l19.1-28.5   L988.9,515.9z"/>
	<path id="c_a334" class="st9" d="M958.4,535.6l10.1,7.6l19-28.3l-10.1-7.4   L958.4,535.6z"/>
	<path id="c_a333" class="st9" d="M976.1,506.5l-3.6-2.7l-14.2,4.5l-10.9,18.9   l9.8,7.4L976.1,506.5z"/>
	<path id="c_a345" class="st4" d="M1142.4,610.9l-12,22.9l-21.9-6.9l15.4-24.9L1142.4,610.9z"/>
	<path id="c_a344" class="st4" d="M1122.3,601.3l-15.5,25.1L1096,623l16.8-26.2L1122.3,601.3z"/>
	<path id="c_a343" class="st4" d="M1111.3,596l-17,26.4l-13.2-4.2l18.7-27.8L1111.3,596z"/>
	<path id="c_a342" class="st4" d="M1098.2,589.7l-18.8,28l-15.3-4.8l20.1-29.8L1098.2,589.7z"/>
	<path id="c_a341" class="st4" d="M1082.6,582.3l-20.2,30.1l-43.3-13.7l26.9-33.9L1082.6,582.3z"/>
	<path id="c_a340" class="st4" d="M1039,570.8l-21.7,27.3l-12.8-4l2.1-14.9l14.7-15.3L1039,570.8z"/>
	<path id="c_a339" class="st4" d="M1007.2,563.7l-4.3,29.8l-11.4-3.6l3.8-26.2H1007.2z"/>
</g>
<g transform="translate(-79 -267.949)">
	<g transform="translate(420 869)">
		<rect x="79" y="-1.1" class="st2" width="3" height="3"/>
	</g>
	<g transform="translate(416 843)">
		<rect x="79" y="-1.1" class="st2" width="3" height="3"/>
	</g>
	<g transform="translate(414 823)">
		<rect x="79" y="-1.1" class="st2" width="3" height="3"/>
	</g>
	<g transform="translate(413 813)">
		<rect x="79" y="-1.1" class="st2" width="3" height="3"/>
	</g>
	<g transform="translate(411 790)">
		<rect x="79" y="-1.1" class="st2" width="3" height="3"/>
	</g>
	<g transform="translate(409 773)">
		<rect x="79" y="-1.1" class="st2" width="3" height="3"/>
	</g>
	<g transform="translate(407 760)">
		<rect x="79" y="-1.1" class="st2" width="3" height="3"/>
	</g>
	<g transform="translate(404 747)">
		<rect x="79" y="-1.1" class="st2" width="3" height="3"/>
	</g>
	<g transform="translate(400 731)">
		<rect x="79" y="-1.1" class="st2" width="3" height="3"/>
	</g>
	<g transform="translate(396 716)">
		<rect x="79" y="-1.1" class="st2" width="3" height="3"/>
	</g>
	<g transform="translate(393 702)">
		<rect x="79" y="-1.1" class="st2" width="3" height="3"/>
	</g>
	<g transform="translate(391 689)">
		<rect x="79" y="-1.1" class="st2" width="3" height="3"/>
	</g>
	<g transform="translate(388 677)">
		<rect x="79" y="-1.1" class="st2" width="3" height="3"/>
	</g>
	<g transform="translate(386 664)">
		<rect x="79" y="-1.1" class="st2" width="3" height="3"/>
	</g>
	<g transform="translate(384 649)">
		<rect x="79" y="-1.1" class="st2" width="3" height="3"/>
	</g>
	<g transform="translate(383 635)">
		<rect x="79" y="-1.1" class="st2" width="3" height="3"/>
	</g>
	<g transform="translate(381 622)">
		<rect x="79" y="-1.1" class="st2" width="3" height="3"/>
	</g>
	<g transform="translate(379 602)">
		<rect x="79" y="-1.1" class="st2" width="3" height="3"/>
	</g>
</g>
</svg>
