<?xml version="1.0" encoding="utf-8"?>
<!-- Generator: Adobe Illustrator 25.4.1, SVG Export Plug-In . SVG Version: 6.00 Build 0)  -->
<svg version="1.1" id="Layer_1" xmlns="http://www.w3.org/2000/svg" xmlns:xlink="http://www.w3.org/1999/xlink" x="0px" y="0px" viewBox="0 0 1080 706" style="enable-background:new 0 0 1080 706;" xml:space="preserve">
<style type="text/css">
	.st0{clip-path:url(#SVGID_00000034809540397292003550000013814271761271769745_);}
	.st1{
		stroke:#FFFFFF;
		fill: rgba(255, 255, 255, 0.08);
	}
	.st2{opacity:0.6;stroke:#FFFFFF;enable-background:new;}
	.st3{opacity:0.96;stroke:#FFFFFF;enable-background:new;}
	.st4{fill:#A6F0F2;}
	.st5{fill:#FFC468;}
	.st6{fill:#AEDD4F;}
	.st7{fill:#77C3FF;}
	.st8{fill:#FFB3B3;}
	.st9{fill:#C08FFC;}
	.st10{fill:#FFFB6C;}
</style>
<g transform="translate(76 0.9)">
	<g>
		<defs>
			<rect id="SVGID_1_" x="-76" y="-0.9" width="1080" height="706"/>
		</defs>
		<clipPath id="SVGID_00000019671718100753961410000003486330766230760079_">
			<use xlink:href="#SVGID_1_"  style="overflow:visible;"/>
		</clipPath>
		<g transform="translate(22 -11)" style="clip-path:url(#SVGID_00000019671718100753961410000003486330766230760079_);">
			<g transform="translate(-79.345 -1.9)">
				<path class="st1" d="M-25.9,748.8L29.3,697L11.1,585.2c-5.4-33.3-0.5-67.5,14.2-97.9l69.8-144.7c6.9-14.3-10.9-27.7-22.7-17.1
					L-98.2,477.7L-25.9,748.8z"/>
				<path class="st1" d="M476.2,502.7l-276.1,67.9l0,0l15.3,63.9l-5.5,1.3L194.6,572l-152,37.4l28,117.2L95,717l33.1-1.3l32.5,1.8
					l22.7-17.8c47.4-37.1,102.2-63.4,160.8-77.2l152.1-35.7L476.2,502.7z"/>
				<path class="st1" d="M786,433.1l-147.2,33.3l15.4,64.1l-4.5,1.1l-15.4-64.3l-131.8,30.6l18.7,78.6l281.7-70L786,433.1z"/>
				<path class="st1" d="M633.3,310.6L753,283.6l-10.8-48.2l-120.5,27.2L633.3,310.6z"/>
				<path class="st1" d="M504.8,317.3l2.8-0.7l5.1,21.3l36.1-8.2l-11.5-48.1l-83.6,18.9l11.5,48.1l44.6-10.1L504.8,317.3z"/>
				<path class="st1" d="M553,328.8l76.1-17.2l-11.5-48.1l-76.1,17.2L553,328.8z"/>
				<path class="st1" d="M768.5,353.2l-10.4-46.6l-98.4,22.3l12.7,46.1L768.5,353.2z"/>
				<path class="st1" d="M455.5,425.5l-11.5-47.8l-79.5,18l5.3,22.3l-3.4,0.8l-5.3-22.3L313,407.3l11.5,47.8L455.5,425.5z"/>
				<path class="st1" d="M252.4,335.9l79.6-18l-12.5-52.4l-79.5,18.1L252.4,335.9z"/>
				<path class="st1" d="M254.1,531.1l77.2-18.9l-11.5-47.9l-206.9,48.3l12,50.2l124.7-30.5l-11.7-48.7l4.6-1.1L254.1,531.1z"/>
				<path class="st1" d="M337,316.8l87.8-19.8l-12.6-52.5l-87.7,20L337,316.8z"/>
				<path class="st1" d="M346.6,375.5l-5.6-23.5l5-1.2l5.6,23.6l86.9-19.7l-11.5-48.1l-172.3,39l11.5,48.1L346.6,375.5z"/>
				<path class="st1" d="M554.4,352.7l-83.7,18.9l11.4,47.6l83.4-20L554.4,352.7z"/>
				<path class="st1" d="M457.4,433.1l-131,29.6l11.5,47.9l130.5-31.9L457.4,433.1z"/>
				<path class="st1" d="M110.4,505.1l207.6-48.4l-11.5-47.9L261,419l-0.3-1.4l-2,0.5l-31.5-131.6l-74,16.8L89,421.7L110.4,505.1z"
					/>
				<path class="st1" d="M667.8,375.6l-12.6-45.7l-96.3,21.8l11,46.1L667.8,375.6z"/>
				<path class="st1" d="M105.8,506.1l-20-78l-44.8,93.1L105.8,506.1z"/>
				<path class="st1" d="M567.4,406.8l-83.4,20l11.1,46.3l1.1-0.2l82.5-19.1L567.4,406.8z"/>
				<path class="st1" d="M108.4,514.5l-0.5,0.1l-0.2-0.9l-70.8,16.5v48.4c0,2.4,2,4.4,4.4,4.4c0.4,0,0.7,0,1-0.1l77.8-19.1
					L108.4,514.5z"/>
				<path class="st1" d="M682.7,429.6l-12.8-46.5l-98.2,22.2l11.3,47.4L682.7,429.6z"/>
				<path class="st1" d="M770.3,360.9l-95.8,21.7l12.7,46l93.3-21.6L770.3,360.9z"/>
				<path class="st2" d="M641.8,247.8l98.3-22.2l-11.9-53.1L629.1,195L641.8,247.8z"/>
				<path class="st2" d="M539.2,271l98.4-22.3L625,196l-98.4,22.4L539.2,271z"/>
				<path class="st2" d="M522.4,219.3l-83.6,19l12.6,52.6L535,272L522.4,219.3z"/>
				<path class="st1" d="M850.5,336.4l3.1-0.6l10.3,51.1l91.1-18.5l-36.4-173.7l-145.8,33l37.9,170l50.1-10.2L850.5,336.4z"/>
				<path class="st1" d="M915.1,183.8l-144.4,32.7l-11.5-49.1l145.6-33.8L915.1,183.8z"/>
				<path class="st1" d="M914.6,131.8l39.7,178.9l96.3-20l25.6-124.7l-49.5-60.6L914.6,131.8z"/>
				<path class="st1" d="M955.1,319.8l9.4,46.8l59.2-11l16.5-14.8l9.1-41L955.1,319.8z"/>
				<path class="st1" d="M814.7,425.8l212.6-43.8l-9.8,34.5l-11.7,51.6l-1.6-0.1c-23.7-1.3-47.4,0.8-70.5,6.1l-101.4,23.3
					L814.7,425.8z"/>
				<path class="st1" d="M0,931.8c-25.7,4.8,70.2-84.2,151-156.1c64.6-57.5,142-98.7,225.7-120.2l547.2-140.9
					c51.3-13.2,105.8-6.4,152.3,19.2l60.3,33.2L1105,806.8L0,931.8z"/>
				<path class="st1" d="M1036,472L1036,472c22,5.3,42.7,15,61,28.3l9.5,6.9l-8.6-106.7l-40.4-20L1036,472z"/>
				<path class="st1" d="M1095.6,389.9l-34.8-30.7l33.2-157.5L1095.6,389.9z"/>
				<path class="st1" d="M1051.5,42.6l-7,23.5l-273.8,64.6L753,112.4l-14.9-81.9l72.3-145.7L1051.5,42.6z"/>
				<path class="st1" d="M453.7,203.7l252-57.1l14.1-29L698.2-1.6L518.1,42.3L445,190L453.7,203.7z"/>
				<path class="st1" d="M477.5,83.4l-70.6,139.3L222,263.2L188.2,237l-12.4-3.5L309,113.1c28.5-25.7,63.8-42.7,101.6-48.8l53.2-8.6
					L477.5,83.4z"/>
				<path class="st1" d="M212.7,86.6c-6.9-5.3-16.3-6.3-24.2-2.5l-38.2,18.4c-7.7,3.7-14.1,9.6-18.5,17L115.8,147
					c-1.4,2.4-4.5,3.2-6.8,1.8s-3.2-4.5-1.8-6.8l16.1-27.4c5.3-9.1,13.2-16.4,22.7-21l38.2-18.4c11.3-5.5,24.7-4.1,34.6,3.6l7.2,5.6
					L293.5-90l-365,40.7l-43.2,255.9l6.8,239.2l296.7-265.5L222.3,94L212.7,86.6z"/>
				<path class="st3" d="M517.8,6.5l173.4-37.1l-27-129.5l-182.5-0.8L517.8,6.5z"/>
				<path class="st1" d="M454-158.6l-84-4.5L302.5,11.2l29.4,28l2.2,18.5l0,0c11.3-7.9,24-13.5,37.4-16.5l119.7-27.8L454-158.6z"/>
			</g>
		</g>
	</g>
	<g transform="translate(-57.35 -12.905)">
		<path id="s_H01" class="st4" d="M463.4,323.2l12.5-2.7l4.5,19.8l-12.3,2.8L463.4,323.2z"/>
		<path id="s_H22" class="st4" d="M503.2,313l-14.1,3l-4.4-19.5l14.1-2.9L503.2,313z"/>
		<path id="s_H21" class="st4" d="M500.5,293.2l19-3.9l4.4,19.4l-19,4L500.5,293.2z"/>
		<path id="s_H23" class="st4" d="M487.5,316.3l-10.4,2.2l-4.5-19.6l10.4-2.1L487.5,316.3z"/>
		<path id="s_H02" class="st4" d="M487.8,318l4.5,19.6l-10.3,2.3l-4.5-19.8L487.8,318z"/>
		<path id="s_H03" class="st4" d="M504.8,334.8l-10.8,2.5l-4.5-19.6l11.5-2.4L504.8,334.8z"/>
		<path id="s_H04" class="st4" d="M512,312.8l12.3-2.6l4.4,19.3l-12.6,3L512,312.8z"/>
		<path id="s_H05" class="st4" d="M530.3,329.2l-4.4-19.3l13-2.8l4.6,19L530.3,329.2z"/>
		<path id="s_H21-1" class="st4" d="M538.5,305.5l-12.9,2.8l-4.4-19.4l12.7-2.6L538.5,305.5z"/>
		<path id="s_H24" class="st4" d="M471,299.3l4.5,19.6l-12.5,2.7l-4.6-19.7L471,299.3z"/>
		<path id="s_H12" class="st4" d="M657.3,280l4.9,18.3l-13,3l-4.8-18.1L657.3,280z"/>
		<path id="s_H13" class="st4" d="M659,279.6l13.6-3.4l3.7,18.8l-12.4,2.9L659,279.6z"/>
		<path id="s_H14" class="st4" d="M674.2,275.8l12.1-3l4,18.9l-12.4,2.9L674.2,275.8z"/>
		<path id="s_H15" class="st4" d="M688,272.4l13.7-3.4l3.9,19.1l-13.7,3.2L688,272.4z"/>
		<path id="s_H16" class="st4" d="M720.4,284.7l-13,3l-3.9-19.2l12.3-3.1L720.4,284.7z"/>
		<path id="s_H17" class="st4" d="M734.8,281.3l-12.8,3l-4.6-19.2l13.4-3.3L734.8,281.3z"/>
		<path id="s_H11" class="st4" d="M631.2,286.5l11.5-2.9l4.8,18.1l-12,2.8L631.2,286.5z"/>
		<path id="s_H18" class="st4" d="M747.9,278.2l-11.5,2.7l-8.2-40.1l10.4-2.4L747.9,278.2z"/>
		<path id="s_H06" class="st4" d="M551.9,305l11.8-2.6l4.2,18l-11.6,2.7L551.9,305z"/>
		<path id="s_H09" class="st4" d="M593.4,295.7l11.8-2.6l3.9,17.6l-11.7,2.7L593.4,295.7z"/>
		<path id="s_H08" class="st4" d="M595.6,313.9l-11.7,2.7l-4-17.9l11.8-2.6L595.6,313.9z"/>
		<path id="s_H20" class="st4" d="M591.3,294.4l-11.8,2.6l-4.5-20.5l11.7-2.7L591.3,294.4z"/>
		<path id="s_H20-1" class="st4" d="M577.9,297.4l-13,2.9l-4.8-20.2l13.2-3.1L577.9,297.4z"/>
		<path id="s_H07" class="st4" d="M578.3,299.1l4,17.9l-12.7,3l-4.2-18L578.3,299.1z"/>
		<path id="s_H10" class="st4" d="M610.7,310.3l-3.9-17.6l12.7-2.8l4.2,17.4L610.7,310.3z"/>
		<path id="s_H19" class="st4" d="M619,288.3l-12.6,2.8l-4.6-20.7l12.2-2.9L619,288.3z"/>
		<path id="s_H25" class="st4" d="M450.5,265.9l17-3.6l4.5,19.9l-16.9,3.6L450.5,265.9z"/>
		<path id="s_H40" class="st4" d="M489,255.9l-4.9-21.7l17.9-3.9l5,21.8L489,255.9z"/>
		<path id="s_H41" class="st4" d="M487.3,256.3l-18.5,4l-4.9-21.6l18.5-4L487.3,256.3z"/>
		<path id="s_H26" class="st4" d="M513.5,273.4l-4.6-20.1l17.4-3.7l4.3,20.2L513.5,273.4z"/>
		<path id="s_H39" class="st4" d="M526,248l-17.4,3.7l-5-21.8l17.7-3.9L526,248z"/>
		<path id="s_H42" class="st4" d="M462.2,239l4.9,21.6l-17,3.6l-5-21.5L462.2,239z"/>
		<path id="s_H33" class="st4" d="M627.9,224.4l-14.2,3.3l-5-21.4l14.1-3.3L627.9,224.4z"/>
		<path id="s_H37" class="st4" d="M553.2,241.8l-5-21.3l14-3.3l5,21.3L553.2,241.8z"/>
		<path id="s_H36" class="st4" d="M568.8,238.2l-5-21.3l13-3.1l5,21.3L568.8,238.2z"/>
		<path id="s_H35" class="st4" d="M583.5,234.7l-5-21.3l13.9-3.3l5,21.4L583.5,234.7z"/>
		<path id="s_H34" class="st4" d="M599,231.1l-5-21.4l13-3l5,21.4L599,231.1z"/>
		<path id="s_H38" class="st4" d="M546.5,220.9l5,21.3l-13.5,3.1l-5.2-21.2L546.5,220.9z"/>
		<path id="s_H29" class="st4" d="M696,208.5l-5-21.5l17.5-4.4l5,21.5L696,208.5z"/>
		<path id="s_H30" class="st4" d="M694.3,208.9l-16.8,4.2l-5-21.4l16.8-4.3L694.3,208.9z"/>
		<path id="s_H31" class="st4" d="M675.8,213.5l-18.4,4.6l-5-21.3l18.4-4.7L675.8,213.5z"/>
		<path id="s_H32" class="st4" d="M655.8,218.5l-16.2,4.1l-4.8-21.3l16-4.1L655.8,218.5z"/>
		<path id="s_H27" class="st4" d="M640,224.2l16.2-4.1l4.5,19.3l-16.4,3.9L640,224.2z"/>
		<path id="s_H28" class="st4" d="M729.6,200l-14.6,3.6l-5-21.5l14.5-3.7L729.6,200z"/>
		<path id="s_A09" class="st5" d="M204.9,632.5l-8.9,2.1l-13.1-55.9l8.9-2.2L204.9,632.5z"/>
		<path id="s_A29" class="st5" d="M155.9,616.5l-9.2,2.2l-6.9-29.5l9.2-2.2L155.9,616.5z"/>
		<path id="s_A28" class="st5" d="M150.6,586.5l9.3-2.3l7,29.7l-9.3,2.2L150.6,586.5z"/>
		<path id="s_A30" class="st5" d="M145,619.1l-8.4,2l-6.9-29.5l8.4-2L145,619.1z"/>
		
			<rect id="s_A05" x="139.6" y="620.1" transform="matrix(0.9737 -0.2279 0.2279 0.9737 -140.2562 50.7287)" class="st5" width="19.8" height="25.1"/>
		
			<rect id="s_A06" x="160.7" y="616.4" transform="matrix(0.9736 -0.2284 0.2284 0.9736 -139.2646 54.4136)" class="st5" width="9.6" height="25.1"/>
		
			<rect id="s_A07" x="171.6" y="613.7" transform="matrix(0.9736 -0.2284 0.2284 0.9736 -138.3821 56.897)" class="st5" width="9.9" height="25.1"/>
		
			<rect id="s_A08" x="183" y="611.2" transform="matrix(0.9736 -0.2284 0.2284 0.9736 -137.5173 59.2657)" class="st5" width="8.6" height="25.1"/>
		<path id="s_A26" class="st5" d="M181.3,579.1l7,29.8l-8.4,2l-7-29.8L181.3,579.1z"/>
		<path id="s_A27" class="st5" d="M178.2,611.3l-9.7,2.3l-7-29.7l9.7-2.3L178.2,611.3z"/>
		<path id="s_A04" class="st5" d="M128.1,592l13,55.5l-20.3,4.8l-5.7-24.4l8.5-2l5.7,24.4l1.7-0.4l-13-55.4L128.1,592z"/>
		
			<rect id="s_A02" x="106.9" y="629" transform="matrix(0.9736 -0.2284 0.2284 0.9736 -143.568 42.4637)" class="st5" width="9.5" height="25.1"/>
		<path id="s_A31" class="st5" d="M116.4,594.8l6.9,29.4l-8.5,2l-6.9-29.3L116.4,594.8z"/>
		<path id="s_A32" class="st5" d="M113,626.6l-9.2,2.2L97,599.5l9.2-2.2L113,626.6z"/>
		<path id="s_A33" class="st5" d="M95.3,599.9l6.8,29.2l-7.5,1.8l-6.8-29.2L95.3,599.9z"/>
		<path id="s_A34" class="st5" d="M86.2,602.1l6.8,29.2l-8,1.9L78.2,604L86.2,602.1z"/>
		<path id="s_A35" class="st5" d="M76.6,604.4l6.8,29.1l-7.6,1.8l-6.8-29L76.6,604.4z"/>
		<path id="s_A36" class="st5" d="M67.3,606.7l6.8,29l-9.7,2.3l-6.8-29L67.3,606.7z"/>
		<path id="s_A37" class="st5" d="M48.1,611.3l7.8-1.9l6.8,28.9l-8.2,1.9L48.1,611.3z"/>
		<path id="s_A01" class="st5" d="M54.9,641.9l47.6-11.2l5.7,24.4l-47.9,11.2L54.9,641.9z"/>
		<path id="s_A25" class="st5" d="M232.2,566.8l15.2-3.7l6.3,27.1l-15.1,4L232.2,566.8z"/>
		<path id="s_A13" class="st5" d="M256.1,591.3l34-9.1l6.6,28.1l-34.2,8.3L256.1,591.3z"/>
		<path id="s_A14" class="st5" d="M285.3,553.9l16-3.9l13.1,56l-16,3.9L285.3,553.9z"/>
		<path id="s_A15" class="st5" d="M302.9,549.6l15.9-3.9l13.1,56l-15.9,3.9L302.9,549.6z"/>
		<path id="s_A16" class="st5" d="M320.4,545.3l16.1-3.9l13.1,56l-16.1,3.9L320.4,545.3z"/>
		<path id="s_A17" class="st5" d="M338.2,540.9l16.7-4.1l13.1,56.1l-16.7,4.1L338.2,540.9z"/>
		<path id="s_A18" class="st5" d="M356.6,536.5l15.7-3.8l13.1,56.1l-15.7,3.8L356.6,536.5z"/>
		<path id="s_A19" class="st5" d="M373.9,532.3l32.7-8l13.1,56.1l-32.7,8L373.9,532.3z"/>
		<path id="s_A20" class="st5" d="M408.2,523.9l14.9-3.6l13.1,56.1l-14.9,3.6L408.2,523.9z"/>
		<path id="s_A23" class="st5" d="M447.8,544l-6.6-28.1l15.1-3.7l6.5,27.9L447.8,544z"/>
		<path id="s_A24" class="st5" d="M446.2,544.4l-14.8,3.8l-6.6-28.4l14.8-3.6L446.2,544.4z"/>
		<path id="s_A21" class="st5" d="M431.8,549.9l47.6-12.3l6.3,26.7l-47.7,11.6L431.8,549.9z"/>
		<path id="s_A22" class="st5" d="M478.9,536l-14.4,3.7l-6.5-27.9l14.5-3.5L478.9,536z"/>
		<path id="s_A10" class="st5" d="M205.8,573.2l8.7-2.1l13.1,56l-8.7,2.1L205.8,573.2z"/>
		<path id="s_A11" class="st5" d="M229.3,626.7l-13.1-56l14.3-3.5l13.1,56L229.3,626.7z"/>
		<path id="s_A12" class="st5" d="M239,595.9l15.1-4.1l6.4,27.3l-15.2,3.7L239,595.9z"/>
		<path id="s_B13" class="st6" d="M788.1,463l-22.8,5.2l-5.9-25.1l22.8-5.1L788.1,463z"/>
		<path id="s_B14" class="st6" d="M671.2,490.2l-21.3,4.3l0.3,1.5l-6.5-27.1l21.3-4.7L671.2,490.2z"/>
		<path id="s_B08" class="st6" d="M695.2,487.1l6.8,28.8l-21.8,5.1l-6.9-29.5L695.2,487.1z"/>
		<path id="s_B09" class="st6" d="M690.3,458.5l20.8-4.6l13.3,56.8l-20.7,4.9L690.3,458.5z"/>
		<path id="s_B10" class="st6" d="M712.7,453.5l22.8-5.1l13.2,56.5l-22.7,5.3L712.7,453.5z"/>
		<path id="s_B11" class="st6" d="M737.1,448l20.6-4.6l13.2,56.3l-20.6,4.8L737.1,448z"/>
		<path id="s_B07" class="st6" d="M650.3,496.1l21.3-4.3l6.9,29.6l-21,4.9L650.3,496.1z"/>
		<path id="s_B12" class="st6" d="M772.6,499.3l-6.9-29.5l22.8-5.2l6.9,29.3L772.6,499.3z"/>
		<path id="s_B06" class="st6" d="M645,528l-19,4.5l-13.6-55l18.2-3.9L645,528z"/>
		<path id="s_B16" class="st6" d="M532.1,523.3l-19.6,4.8l-6.4-27.6l19.7-4.3L532.1,523.3z"/>
		<path id="s_B15" class="st6" d="M546.8,491.7l6.2,26.6l-19.2,4.7l-6.3-27.1L546.8,491.7z"/>
		<path id="s_B01" class="st6" d="M512.9,529.8l19.6-4.8l6.5,27.9l-19.6,4.6L512.9,529.8z"/>
		<path id="s_B02" class="st6" d="M540.6,552.5l-6.5-27.9l19.2-4.7l6.5,28L540.6,552.5z"/>
		<path id="s_B03" class="st6" d="M561.5,547.6l-13.1-56.2l19.9-4.3l13,55.9L561.5,547.6z"/>
		<path id="s_B04" class="st6" d="M583,542.5l-13-55.9l19.7-4.3l12.9,55.5L583,542.5z"/>
		<path id="s_B05" class="st6" d="M591.3,482l19.5-4.2l13.6,55l-20.2,4.7L591.3,482z"/>
		<path id="s_C08" class="st5" d="M1013.2,420.3l-23,4.8l-2.5-10l28.4-7L1013.2,420.3z"/>
		<path id="s_C06" class="st5" d="M993.8,446.6l-21.9,3l-6.2-24.2l21.6-5.1L993.8,446.6z"/>
		<path id="s_C05" class="st5" d="M935.2,432.6l28.9-6.8l6.2,24.2l-28.1,7.2L935.2,432.6z"/>
		<path id="s_C04" class="st5" d="M940.5,457.6l-30.9,7.9l-6.5-25.3l30.4-7.2L940.5,457.6z"/>
		<path id="s_C10" class="st5" d="M963.6,424.1l-28.9,6.8l-6.9-24.3l29.8-6L963.6,424.1z"/>
		<path id="s_C03" class="st5" d="M908,465.9l-24,6.1l-13.8-53.8l24.3-4.9L908,465.9z"/>
		<path id="s_C02" class="st5" d="M856.4,449.4l18.9-4.1l6.9,27.1l-26.2,6.7l-7-28L856.4,449.4z"/>
		<path id="s_C11" class="st5" d="M875,443.7l-18.1,3.9l-6.4-25.4l18-3.6L875,443.7z"/>
		<path id="s_C12" class="st5" d="M855.2,448l-6.6,1.5l-6.5-25.7l6.6-1.3L855.2,448z"/>
		<path id="s_C13" class="st5" d="M847,449.9l-20.9,4.8l-6.3-26.4l20.7-4.1L847,449.9z"/>
		<path id="s_C01" class="st5" d="M826.5,456.3l20.9-4.8l7,28l-21.1,5.4L826.5,456.3z"/>
		<path id="s_C07" class="st5" d="M1007.3,444.7l-11.9,1.6l-4.8-19.7l22.1-4.6L1007.3,444.7z"/>
		<path id="s_C09" class="st5" d="M1016.6,406.1l-29.2,7.3l-4.4-17.7l37.9-7.6L1016.6,406.1z"/>
		<path id="s_D14" class="st7" d="M336.8,487.5l7.6-1.8l4,17.4l-7.6,1.7L336.8,487.5z"/>
		<path id="s_D24" class="st7" d="M450.7,460.2l4.3,18.7l-8.4,1.9l-4.3-18.6L450.7,460.2z"/>
		<path id="s_D23" class="st7" d="M440.7,462.6l4.3,18.5l-9.2,2.1l-4-18.5L440.7,462.6z"/>
		<path id="s_D22" class="st7" d="M430.1,465.1l4,18.5l-8.9,2l-4.2-18.3L430.1,465.1z"/>
		<path id="s_D21" class="st7" d="M419.4,467.7l4.2,18.3l-9.6,2.2l-4.2-18.2L419.4,467.7z"/>
		<path id="s_D20" class="st7" d="M408.1,470.4l4.2,18.2l-8.7,2l-4.2-18.1L408.1,470.4z"/>
		<path id="s_x5F_D19" class="st7" d="M389,475l8.7-2.1l4.2,18l-8.8,2L389,475z"/>
		<path id="s_x5F_D18" class="st7" d="M387.4,475.4l4.1,17.9l-9.4,2.1l-4.1-17.8L387.4,475.4z"/>
		<path id="s_D17" class="st7" d="M376.3,478l4.1,17.8l-8.9,2l-4.1-17.7L376.3,478z"/>
		<path id="s_D16" class="st7" d="M365.8,480.6l4.1,17.7l-9.4,2.1l-4.1-17.6L365.8,480.6z"/>
		<path id="s_D15" class="st7" d="M354.7,483.2l4,17.5l-8.6,2l-4-17.4L354.7,483.2z"/>
		<path id="s_D25" class="st7" d="M456.6,478.5l-4.3-18.7l6.4-1.5l5,18.6L456.6,478.5z"/>
		<path id="s_D26" class="st7" d="M458.3,456.6l-16.4,3.9l-4.8-19.5l16-3.7L458.3,456.6z"/>
		<path id="s_D08-1" class="st7" d="M262.4,504.9l4.1,18.1l-3.2,0.7l-3.3-18.3L262.4,504.9z"/>
		<path id="s_D09" class="st7" d="M264,504.5l7-1.8l4.4,18.2l-7.3,1.7L264,504.5z"/>
		<path id="s_D10" class="st7" d="M272.6,502.3l12.5-3.2l4.2,18.5l-12.3,2.9L272.6,502.3z"/>
		<path id="s_D11" class="st7" d="M286.7,498.7l12.1-3.1c0.4,1.6,1.5,5.5,2.5,9.3c0.7,2.5,1.4,5.1,1.9,7c0.3,1,0.5,1.8,0.6,2.3
			l-13,3L286.7,498.7z"/>
		<path id="s_D12" class="st7" d="M300.5,495.3l10.8-2.7l4.3,19l-10,2.4C304.8,511.2,302.3,502,300.5,495.3z"/>
		<path id="s_D13" class="st7" d="M313,492.1l8-2l4.3,19.2l-8,1.9L313,492.1z"/>
		<path id="s_D27" class="st7" d="M320.6,488.4l-8,2l-5-19.1l8.8-2L320.6,488.4z"/>
		<path id="s_D28" class="st7" d="M248.4,485.2l32.2-7.5l4.3,19.8l-31.9,8.1L248.4,485.2z"/>
		<path id="s_D08" class="st7" d="M253.4,507.2l4.9-1.2l3.3,18.2l-4.9,1.1L253.4,507.2z"/>
		<path id="s_D02" class="st7" d="M156.1,529.6l4.5,19.3l-16.6,3.9l-3.9-19.2L156.1,529.6z"/>
		<path id="s_D03" class="st7" d="M157.7,529.1l14.7-3.7l4.7,19.6l-14.9,3.5L157.7,529.1z"/>
		<path id="s_D04" class="st7" d="M174.1,525l11.4-2.9l4.7,19.8l-11.4,2.7L174.1,525z"/>
		<path id="s_D04-1" class="st7" d="M187.1,521.7l8.3-2.1l4.8,20l-8.3,1.9L187.1,521.7z"/>
		<path id="s_D05" class="st7" d="M197,519.2l9.4-2.4l4.8,20.2l-9.4,2.2L197,519.2z"/>
		<path id="s_D06" class="st7" d="M208,516.4l16.5-4.2l4.8,20.5l-16.5,3.9L208,516.4z"/>
		<path id="s_D29" class="st7" d="M185.6,499.9l4.6,19.3l-66.9,16.9l-4.9-20.5L185.6,499.9z"/>
		<path id="s_D01" class="st7" d="M123.7,537.8l14.8-3.7l3.9,19.1l-14.2,3.3L123.7,537.8z"/>
		<path id="s_D07" class="st7" d="M244.7,529.2l-13.7,3.2l-9.6-40.9l14.2-3.3l9.3,35L244.7,529.2z"/>
		<path id="s_D35" class="st7" d="M283.8,460.4l-26.9,5.7l-8.9-37.9l26.7-6.4L283.8,460.4z"/>
		<path id="s_D36" class="st7" d="M276.3,421.3l13.1-3.2l9.2,39.2l-13.2,2.8L276.3,421.3z"/>
		<path id="s_D34" class="st7" d="M255.2,466.4l-26.8,6.7l-8.9-38.1l26.9-6.5L255.2,466.4z"/>
		<path id="s_D33" class="st7" d="M226.7,473.5l-26.8,6.6l-9-38.3l26.8-6.5L226.7,473.5z"/>
		<path id="s_D32" class="st7" d="M198.3,480.5l-26.5,6.6l-9-38.5l26.6-6.4L198.3,480.5z"/>
		<path id="s_D31" class="st7" d="M170.1,487.5l-27.5,6.8l-9.1-38.7l27.6-6.6L170.1,487.5z"/>
		<path id="s_D36-1" class="st7" d="M313.1,454.2l-12.8,2.7l-9.2-39.2l12.4-3L313.1,454.2z"/>
		<path id="s_D30" class="st7" d="M131.9,456.1l9.1,38.7l-26,6.4l-10.4-38.6L131.9,456.1z"/>
		<path id="s_D37" class="st7" d="M324.5,433.2l6.1-1.4l3.9,16.4l-5.8,1.3L324.5,433.2z"/>
		<path id="s_D44" class="st7" d="M348.6,425.8l-4.6-20.2l6.9-1.4l4.5,20L348.6,425.8z"/>
		<path id="s_D45" class="st7" d="M347,426.2l-7,1.6l-4.7-20.4l7-1.4L347,426.2z"/>
		<path id="s_D46" class="st7" d="M338.3,428.2l-6.5,1.5l-4.9-20.6l6.8-1.4L338.3,428.2z"/>
		<path id="s_D40" class="st7" d="M410,411.5l-4.5-19.8l16-3.8l4.5,19.9L410,411.5z"/>
		<path id="s_D41" class="st7" d="M408.3,411.9l-17.3,4l-4.5-19.8l17.3-4.1L408.3,411.9z"/>
		<path id="s_D38" class="st7" d="M431.8,425.8l-3.8-16.7l18.6-3.6l3.5,16.2L431.8,425.8z"/>
		<path id="s_D39" class="st7" d="M446.3,403.8l-18.6,3.6l-4.5-19.9l18.7-4.4L446.3,403.8z"/>
		<path id="s_D42" class="st7" d="M369.4,400.2l15.5-3.6l4.5,19.8l-15.5,3.6L369.4,400.2z"/>
		<path id="s_D43" class="st7" d="M364,422.3l-6.8,1.6l-4.5-19.9l6.9-1.4L364,422.3z"/>
		<path id="s_D47" class="st7" d="M325.2,409.4l4.9,20.7l-6.1,1.4l-5.3-20.8L325.2,409.4z"/>
		<path id="s_E05" class="st4" d="M556.1,434.5l4.3,18.3l-10.5,2.4l-4.3-18.3L556.1,434.5z"/>
		<path id="s_E04" class="st4" d="M544,437.3l4.3,18.3l-10.9,2.5l-4.3-18.3L544,437.3z"/>
		<path id="s_E03" class="st4" d="M531.4,440.2l4.3,18.3l-10.9,2.5l-4.3-18.3L531.4,440.2z"/>
		<path id="s_E02" class="st4" d="M518.9,443.1l4.3,18.3l-10.4,2.4l-4.3-18.4L518.9,443.1z"/>
		<path id="s_E06" class="st4" d="M562,452.5l-4.3-18.3l12.4-2.9l3.9,18.4L562,452.5z"/>
		<path id="s_E16" class="st4" d="M506.4,444.2l-13.1,3l-5-18.2l13.8-3.2L506.4,444.2z"/>
		<path id="s_E01" class="st4" d="M493.8,448.9l13-3l4.3,18.4l-12.3,2.8L493.8,448.9z"/>
		<path id="s_E07" class="st4" d="M582.3,428.7l16.4-3.8l3.8,18.4l-16.3,3.6L582.3,428.7z"/>
		<path id="s_E10" class="st4" d="M656.1,411.9l4.5,18.7l-17.7,3.9l-3.9-18.7L656.1,411.9z"/>
		<path id="s_E09" class="st4" d="M637.4,416.1l3.9,18.7l-17.7,3.9l-3.9-18.5L637.4,416.1z"/>
		<path id="s_E08" class="st4" d="M618,420.6l3.9,18.5l-17.7,3.9l-3.8-18.4L618,420.6z"/>
		<path id="s_E11" class="st4" d="M662.3,430.2l-4.5-18.7l15.3-3.5l4.6,18.8L662.3,430.2z"/>
		<path id="s_E12" class="st4" d="M685.3,405.5l21.5-4.9l4.4,18.3l-21.1,4.9L685.3,405.5z"/>
		<path id="s_E14" class="st4" d="M756.6,408.3l-20.6,4.8l-4.4-18.1l20.3-4.6L756.6,408.3z"/>
		<path id="s_E13" class="st4" d="M729.9,395.4l4.4,18.1l-21.4,5l-4.4-18.3L729.9,395.4z"/>
		<path id="s_E15" class="st4" d="M775.2,403.9l-17,4l-10.1-38.1l17-3.8L775.2,403.9z"/>
		<path id="s_E19" class="st4" d="M731.4,335.4l-3.7-17l13.7-3.2l3.9,16.8L731.4,335.4z"/>
		<path id="s_E20" class="st4" d="M729.7,335.8l-12.7,3.1l-4-17l13-3L729.7,335.8z"/>
		<path id="s_E21" class="st4" d="M715.4,339.3l-12.9,3.1l-4.2-17.1l13.1-3L715.4,339.3z"/>
		<path id="s_E22" class="st4" d="M700.8,342.8l-14.8,3.6l-4.4-17.2l15-3.5L700.8,342.8z"/>
		<path id="s_E18" class="st4" d="M760.9,350l-9.3,2.2l-8.7-37.3l10-2.3L760.9,350z"/>
		<path id="s_E23" class="st4" d="M679.9,329.5l4.4,17.2l-13.8,3.3l-4.6-17.3L679.9,329.5z"/>
		<path id="s_E25" class="st4" d="M630.6,359l-4.2-17.8l13.1-3.1l4.1,17.7L630.6,359z"/>
		<path id="s_E26" class="st4" d="M628.9,359.4l-14.9,3.6l-3.6-18l14.4-3.3L628.9,359.4z"/>
		<path id="s_E27" class="st4" d="M612.4,363.3l-13.6,3.2l-4-18l13.9-3.2L612.4,363.3z"/>
		<path id="s_E28" class="st4" d="M597.1,367l-14.8,3.5l-4-18.1l14.8-3.5L597.1,367z"/>
		<path id="s_E24" class="st4" d="M658.2,352.4l-12.9,3.1l-4.1-17.7l12.4-2.9L658.2,352.4z"/>
		<path id="s_E29" class="st4" d="M576.7,352.8l4,18.1l-12.2,2.9l-4.6-18.1L576.7,352.8z"/>
		<path id="s_E17" class="st4" d="M479.8,395.1l10.8-2.5l3.8,18.9l-10.2,2.4L479.8,395.1z"/>
		<path id="s_E31" class="st4" d="M535.1,380.7l-4.1-17.5l9.9-2.2l3.9,17.4L535.1,380.7z"/>
		<path id="s_E32" class="st4" d="M533.4,381.1l-8.6,2l-4.3-17.6l8.8-1.9L533.4,381.1z"/>
		<path id="s_E33" class="st4" d="M523.2,383.4l-9.3,2.1l-4.3-17.7l9.3-2L523.2,383.4z"/>
		<path id="s_E34" class="st4" d="M512.3,385.9l-9.3,2.1l-4.3-17.9l9.3-2L512.3,385.9z"/>
		<path id="s_E35" class="st4" d="M501.3,388.5l-9.3,2.1l-3.6-18.2l8.6-1.9L501.3,388.5z"/>
		<path id="s_E30" class="st4" d="M555.4,376l-8.9,2l-3.9-17.4l8.6-1.9L555.4,376z"/>
		<path id="s_E36" class="st4" d="M486.7,372.8l3.6,18.2l-10.9,2.5l-4.3-18.2L486.7,372.8z"/>
		<path id="s_F02" class="st5" d="M835.1,388.7L831,371l21-4.6l3.9,17.9L835.1,388.7z"/>
		<path id="s_F12" class="st5" d="M828.9,369.7l-18.9,4.1l-4.6-19.6l18.9-4.1L828.9,369.7z"/>
		<path id="s_F01" class="st5" d="M810.4,375.5l18.9-4.1l4.1,17.7l-19,4.1L810.4,375.5z"/>
		<path id="s_F03" class="st5" d="M864,364.1l17.7-3.9l3.8,17.7l-17.6,4.1L864,364.1z"/>
		<path id="s_F05" class="st5" d="M923.4,351.2l3.6,17.2l-19.1,4.4l-3-17.6L923.4,351.2z"/>
		<path id="s_F04" class="st5" d="M903.2,355.6l3,17.6l-19,4.4l-3.8-17.6L903.2,355.6z"/>
		<path id="s_F06" class="st5" d="M928.6,368l-3.5-17.1l20.6-4.5l3.9,16.8L928.6,368z"/>
		<path id="s_F08" class="st5" d="M995.1,335.1l4.1,19.7l-17.1,3l-3.9-18.8L995.1,335.1z"/>
		<path id="s_F09" class="st5" d="M996.8,334.7l20.5-4.7l3.8,20.9l-20.1,3.6L996.8,334.7z"/>
		<path id="s_F11" class="st5" d="M972.8,321l3.4,16.7l-12,2.8l-3.3-17L972.8,321z"/>
		<path id="s_F07" class="st5" d="M964.5,342.2l12.1-2.8l3.9,18.8l-12.4,2.2L964.5,342.2z"/>
		<path id="s_F10" class="st5" d="M1037.2,338.1l-14.6,12l-3.7-20.4l21.3-4.9L1037.2,338.1z"/>
		<path id="s_F13" class="st5" d="M965.7,285.7l4.3,19.8l-15.3,2.9l-3.9-18.9L965.7,285.7z"/>
		<path id="s_G23" class="st7" d="M321.8,291.9l-6.7,1.5l-5.1-19.4l6.9-1.5L321.8,291.9z"/>
		<path id="s_G29" class="st7" d="M261.2,305.5l-5.1-19.4l8.3-1.8l5.1,19.4L261.2,305.5z"/>
		<path id="s_G28" class="st7" d="M271.1,303.2l-5.1-19.4l6.2-1.4l5.1,19.4L271.1,303.2z"/>
		<path id="s_G27" class="st7" d="M279,301.5l-5.1-19.4l8-1.8l5.1,19.4L279,301.5z"/>
		<path id="s_G26" class="st7" d="M288.7,299.3l-5.1-19.4l6.4-1.4l5.1,19.4L288.7,299.3z"/>
		<path id="s_G25" class="st7" d="M296.8,297.5l-5.1-19.4l8.4-1.9l5.1,19.4L296.8,297.5z"/>
		<path id="s_G24" class="st7" d="M306.9,295.3l-5.1-19.4l6.6-1.5l5.1,19.4L306.9,295.3z"/>
		<path id="s_G30" class="st7" d="M254.4,286.4l5.1,19.4l-9.7,2.2l-5.1-19.4L254.4,286.4z"/>
		<path id="s_G16" class="st7" d="M395,276l-4.7-19.3l8.1-1.7l4.5,19.3L395,276z"/>
		<path id="s_G32" class="st7" d="M403.2,275.9l4.8,20.8l-7.6,1.7l-5.1-20.7L403.2,275.9z"/>
		<path id="s_G17" class="st7" d="M393.3,276.4l-8.1,1.8l-4.7-19.4l8-1.7L393.3,276.4z"/>
		<path id="s_G18" class="st7" d="M383.6,278.5l-8.7,1.9l-4.4-19.5l8.5-1.8L383.6,278.5z"/>
		<path id="s_G19" class="st7" d="M373.2,280.9l-9.1,2l-3.8-19.7l8.4-1.8L373.2,280.9z"/>
		<path id="s_G20" class="st7" d="M362.5,283.3l-8.1,1.8l-5.2-19.5l9.4-2L362.5,283.3z"/>
		<path id="s_G21" class="st7" d="M352.7,285.4l-8,1.8l-5.2-19.6l8-1.7L352.7,285.4z"/>
		<path id="s_G14" class="st7" d="M409.7,296.3l-4.8-20.8l9.4-2.1l5,20.7L409.7,296.3z"/>
		<path id="s_G15" class="st7" d="M413.9,271.8l-9.4,2.1l-4.5-19.3l9.3-2L413.9,271.8z"/>
		<path id="s_G22" class="st7" d="M337.9,268l5.2,19.6l-8.6,1.9l-5.1-19.7L337.9,268z"/>
		<path id="s_G13" class="st7" d="M427.9,328.8l-14,3l-4.2-18l14.1-3.2L427.9,328.8z"/>
		<path id="s_G08" class="st7" d="M373.9,342.1l4.7,20.3l-10.8,2.4l-4.7-20.4L373.9,342.1z"/>
		<path id="s_G09" class="st7" d="M375.6,341.8l11-2.4l4.7,20.2l-11,2.4L375.6,341.8z"/>
		<path id="s_G10" class="st7" d="M388.3,339.1l11.2-2.4l4.7,20.1l-11.2,2.5L388.3,339.1z"/>
		<path id="s_G11" class="st7" d="M401.2,336.3l11.4-2.4l4.7,20l-11.4,2.5L401.2,336.3z"/>
		<path id="s_G02" class="st7" d="M282,362.4l4.8,20.4l-8,1.8l-4.7-20.2L282,362.4z"/>
		<path id="s_G03" class="st7" d="M283.6,362l9-2.2l4.8,20.7l-9.1,2L283.6,362z"/>
		<path id="s_G04" class="st7" d="M294.3,359.4l8.6-2.1l4.9,21l-8.6,1.9L294.3,359.4z"/>
		<path id="s_G05" class="st7" d="M304.5,356.8l8.6-2.1l5,21.3l-8.7,1.9L304.5,356.8z"/>
		<path id="s_G06" class="st7" d="M314.8,354.3l3.4-0.8l6.4-0.9l4.9,20.9l-9.7,2.1L314.8,354.3z"/>
		<path id="s_G01" class="st7" d="M263.7,366.9l8.7-2.2l4.7,20.2l-8.7,1.9L263.7,366.9z"/>
		<path class="st7" d="M342.1,370.7l-11,2.4l-4.8-20.8L337,350L342.1,370.7z"/>
		<path id="s_G07" class="st7" d="M350,347.2l11.4-2.4l4.8,20.4l-10.9,2.4L350,347.2z"/>
		<path id="s_G12" class="st7" d="M418.9,353.5l-4.7-20l14-3l4.6,20L418.9,353.5z"/>
		<path id="s_I07" class="st8" d="M868,168.1l-5.2-20.6l18.5-4.2l5,20.8L868,168.1z"/>
		<path id="s_I06" class="st8" d="M866.4,168.5l-16.6,3.6l-4.3-20.7l15.7-3.6L866.4,168.5z"/>
		<path id="s_I05" class="st8" d="M848.1,172.5l-18,3.9l-3.8-20.6l17.5-4L848.1,172.5z"/>
		<path id="s_I04" class="st8" d="M828.5,176.7l-16.4,3.6l-4.9-20.2l17.4-4L828.5,176.7z"/>
		<path id="s_I03" class="st8" d="M810.4,180.7l-17.5,3.8l-4.6-20.1l17.2-3.9L810.4,180.7z"/>
		<path id="s_I08" class="st8" d="M905.5,160l-17.5,3.8l-5-20.8l17.9-4.1L905.5,160z"/>
		<path id="s_I02" class="st8" d="M786.7,164.7l4.6,20.1l-21,4.6l-4.9-19.8L786.7,164.7z"/>
		<path id="s_I01" class="st8" d="M770.7,191.1l21-4.6l4.8,20.9l-20.6,4.7L770.7,191.1z"/>
		<path id="s_J02" class="st6" d="M238,255.3l-9.5-40.5l20.5-5.2l9.7,41.3L238,255.3z"/>
		<path id="s_J07" class="st6" d="M371.8,226.7l-20.8,4.5l-9.7-41.5l20.8-4.4L371.8,226.7z"/>
		<path id="s_J08" class="st6" d="M363.8,184.9l21.3-4.5l9.7,41.4l-21.3,4.6L363.8,184.9z"/>
		<path id="s_J06" class="st6" d="M349.3,231.5l-20.7,4.4l-9.7-41.5l20.7-4.4L349.3,231.5z"/>
		<path id="s_J05" class="st6" d="M327,236.3l-21.4,4.6l-9.7-41.6l21.4-4.5L327,236.3z"/>
		<path id="s_J04" class="st6" d="M303.9,241.2l-21,4.5l-9.7-41.6l21-4.4L303.9,241.2z"/>
		<path id="s_J09" class="st6" d="M404.6,219.7l-8.2,1.7l-9.7-41.4l42.9-9.1L404.6,219.7z"/>
		<path id="s_J03" class="st6" d="M258,207.3l13.5-2.9l9.7,41.6l-21,4.5l-9.7-41.3L258,207.3z"/>
		<path id="s_J01" class="st6" d="M188.2,225.2l38.8-9.9l9.5,40.4l-14.5,3.1l-28.8-24.9l-9.8-2.7L188.2,225.2z"/>
		<path id="s_K06" class="st9" d="M622.6,161.4l-26,5.9l-9.1-39.6l26-6L622.6,161.4z"/>
		<path id="s_K07" class="st9" d="M615.2,121.3l26-6l9.1,39.8l-26,5.9L615.2,121.3z"/>
		<path id="s_K05" class="st9" d="M594.9,167.7l-29.8,6.8l-9-39.5l29.8-6.9L594.9,167.7z"/>
		<path id="s_K04" class="st9" d="M563.4,174.9l-18.9,4.3l-9-39.5l18.9-4.4L563.4,174.9z"/>
		<path id="s_K03-1" class="st9" d="M542.9,179.6l-12.1,2.8l-9-39.4l12.1-2.8L542.9,179.6z"/>
		<path id="s_K03" class="st9" d="M529.1,182.7l-19.2,4.4l-9-39.4l19.2-4.4L529.1,182.7z"/>
		<path id="s_K02" class="st9" d="M508.3,187.5l-25,5.7l-9-39.3l25-5.8L508.3,187.5z"/>
		<path id="s_K09" class="st9" d="M715.1,116.5l-13.5,26.8l-21.1,4.8l-9.9-39.7l40.9-9.5L715.1,116.5z"/>
		<path id="s_K10" class="st9" d="M663.5,79.9l41.8-10.1l5.8,27.5l-40.9,9.5L663.5,79.9z"/>
		<path id="s_K08" class="st9" d="M668.9,108.8l9.9,39.7l-26.9,6.1l-9.1-39.8L668.9,108.8z"/>
		<path id="s_K01" class="st9" d="M465.5,155.9l7.2-1.7l9,39.3l-26.6,6.1l-6.4-10.2L465.5,155.9z"/>
		<path id="s_L01" class="st10" d="M758.1,111.7l-4.3-22.5l32.5-7.8l9.3,38.7l-24.9,5.7L758.1,111.7z"/>
		<path id="s_L02" class="st10" d="M797.2,78.8l7.3,30.5l0.3,8.7l-7.5,1.7L788,81L797.2,78.8z"/>
		<path id="s_L05" class="st10" d="M872.5,102.6l-21.4,4.9l-9.4-39.4L863,63L872.5,102.6z"/>
		<path id="s_L06" class="st10" d="M864.7,62.6l20.2-4.9l9.6,40l-20.3,4.6L864.7,62.6z"/>
		<path id="s_L04" class="st10" d="M849.4,107.9l-20.1,4.5l-9.5-39.1l20.1-4.8L849.4,107.9z"/>
		<path id="s_L03" class="st10" d="M827.7,112.8l-21.2,4.8l-0.3-8.4l-7.4-30.8l19.4-4.7L827.7,112.8z"/>
		<path id="s_L07" class="st10" d="M918.5,92.2l-22.4,5.1l-9.6-40l22.3-5.4L918.5,92.2z"/>
		<path id="s_L09" class="st10" d="M793.8,62.5l-38.4,9.2l-2.2-11.5l38.2-9.2L793.8,62.5z"/>
		<path id="s_L08" class="st10" d="M755.7,73.4l38.4-9.2l2.7,12.9l-38.6,9.3L755.7,73.4z"/>
	</g>
</g>
</svg>
